<?xml version="1.0" encoding="UTF-8"?>
<!DOCTYPE svg PUBLIC "-//W3C//DTD SVG 1.1//EN" "http://www.w3.org/Graphics/SVG/1.1/DTD/svg11.dtd">
<svg xmlns="http://www.w3.org/2000/svg" version="1.1" width="512px" height="330px" style="shape-rendering:geometricPrecision; text-rendering:geometricPrecision; image-rendering:optimizeQuality; fill-rule:evenodd; clip-rule:evenodd" xmlns:xlink="http://www.w3.org/1999/xlink">
<g><path style="opacity:1" fill="#fefefe" d="M -0.5,-0.5 C 170.167,-0.5 340.833,-0.5 511.5,-0.5C 511.5,109.5 511.5,219.5 511.5,329.5C 340.833,329.5 170.167,329.5 -0.5,329.5C -0.5,219.5 -0.5,109.5 -0.5,-0.5 Z"/></g>
<g><path style="opacity:1" fill="#ddb9b3" d="M 209.5,63.5 C 198.813,63.168 188.146,63.5013 177.5,64.5C 179.03,67.104 180.363,69.7707 181.5,72.5C 178.78,70.0827 176.78,67.0827 175.5,63.5C 186.993,62.176 198.326,62.176 209.5,63.5 Z"/></g>
<g><path style="opacity:1" fill="#e46b2a" d="M 258.5,63.5 C 259.5,65.5 260.5,67.5 261.5,69.5C 262.576,72.7345 263.243,76.0678 263.5,79.5C 262.566,78.4324 262.232,77.099 262.5,75.5C 261.167,75.5 259.833,75.5 258.5,75.5C 258.357,73.7376 258.691,72.0709 259.5,70.5C 258.132,69.4063 256.965,69.7397 256,71.5C 255.51,70.2068 255.343,68.8734 255.5,67.5C 246.885,67.0897 238.551,67.0897 230.5,67.5C 230.5,68.5 230.5,69.5 230.5,70.5C 229.088,68.3964 228.088,66.0631 227.5,63.5C 237.833,63.5 248.167,63.5 258.5,63.5 Z"/></g>
<g><path style="opacity:1" fill="#512d6f" d="M 167.5,64.5 C 163.636,74.7576 159.97,85.0909 156.5,95.5C 155.833,95.5 155.167,95.5 154.5,95.5C 154.595,91.3901 155.595,87.5568 157.5,84C 155.524,80.6352 156.524,79.1352 160.5,79.5C 161.586,75.8218 161.586,72.1551 160.5,68.5C 157.7,69.7319 154.7,70.3985 151.5,70.5C 146.531,71.2882 142.364,69.9548 139,66.5C 137.289,69.9375 135.289,73.2708 133,76.5C 133.131,81.3891 131.964,85.8891 129.5,90C 130.233,91.7659 130.567,93.5992 130.5,95.5C 129.5,95.5 128.5,95.5 127.5,95.5C 127.5,93.1667 127.5,90.8333 127.5,88.5C 129.678,80.1222 132.011,71.7889 134.5,63.5C 145.679,63.1721 156.679,63.5054 167.5,64.5 Z"/></g>
<g><path style="opacity:1" fill="#f3e8f8" d="M 167.5,64.5 C 166.615,71.4311 165.281,78.2645 163.5,85C 160.435,88.5844 158.769,92.7511 158.5,97.5C 157.817,97.1373 157.15,96.8039 156.5,96.5C 156.5,96.1667 156.5,95.8333 156.5,95.5C 159.97,85.0909 163.636,74.7576 167.5,64.5 Z"/></g>
<g><path style="opacity:1" fill="#d58961" d="M 223.5,63.5 C 235.167,62.1667 246.833,62.1667 258.5,63.5C 248.167,63.5 237.833,63.5 227.5,63.5C 228.088,66.0631 229.088,68.3964 230.5,70.5C 231.031,72.5441 232.198,74.2107 234,75.5C 234.662,77.8127 235.162,80.146 235.5,82.5C 231.779,76.0747 227.779,69.7414 223.5,63.5 Z"/></g>
<g><path style="opacity:1" fill="#512974" d="M 154.5,95.5 C 146.5,95.5 138.5,95.5 130.5,95.5C 130.567,93.5992 130.233,91.7659 129.5,90C 131.964,85.8891 133.131,81.3891 133,76.5C 135.289,73.2708 137.289,69.9375 139,66.5C 142.364,69.9548 146.531,71.2882 151.5,70.5C 154.7,70.3985 157.7,69.7319 160.5,68.5C 161.586,72.1551 161.586,75.8218 160.5,79.5C 156.524,79.1352 155.524,80.6352 157.5,84C 155.595,87.5568 154.595,91.3901 154.5,95.5 Z"/></g>
<g><path style="opacity:1" fill="#7d569c" d="M 411.5,117.5 C 407.354,128.45 400.354,137.117 390.5,143.5C 382.586,146.311 374.92,149.811 367.5,154C 342.518,155.18 317.518,155.847 292.5,156C 289.947,157.656 287.281,157.823 284.5,156.5C 284.5,157.5 284.5,158.5 284.5,159.5C 286.167,159.5 287.833,159.5 289.5,159.5C 288.833,164.833 288.167,170.167 287.5,175.5C 287.167,176.833 286.833,178.167 286.5,179.5C 284.387,181.691 282.72,184.358 281.5,187.5C 280.667,187.833 279.833,188.167 279,188.5C 271.216,188.181 263.383,188.181 255.5,188.5C 255.5,184.833 255.5,181.167 255.5,177.5C 255.5,176.833 255.5,176.167 255.5,175.5C 257.592,175.439 259.092,174.439 260,172.5C 261.157,168.218 261.99,163.884 262.5,159.5C 263.873,159.657 265.207,159.49 266.5,159C 263.165,153.876 264.498,150.376 270.5,148.5C 271.795,149.098 273.128,149.598 274.5,150C 275.736,154.036 278.236,155.203 282,153.5C 282.668,150.51 281.502,148.51 278.5,147.5C 277.571,146.311 277.238,144.978 277.5,143.5C 283.082,143.943 285.416,141.61 284.5,136.5C 287.989,133.422 291.989,131.422 296.5,130.5C 296.826,136.826 293.826,139.159 287.5,137.5C 287.5,138.833 287.5,140.167 287.5,141.5C 289.144,141.286 290.644,141.62 292,142.5C 296.776,140.211 300.276,136.711 302.5,132C 301.62,130.644 301.286,129.144 301.5,127.5C 324.124,126.687 346.791,126.187 369.5,126C 371.392,125.027 373.392,124.36 375.5,124C 377.657,120.844 380.157,118.011 383,115.5C 383.829,110.136 383.663,104.802 382.5,99.5C 380.867,97.497 378.867,96.1637 376.5,95.5C 346.5,95.5 316.5,95.5 286.5,95.5C 290.203,90.0091 294.536,84.8424 299.5,80C 300.793,79.51 302.127,79.3433 303.5,79.5C 303.5,78.1667 303.5,76.8333 303.5,75.5C 304.873,75.6567 306.207,75.49 307.5,75C 309.978,70.5196 313.645,67.5196 318.5,66C 338.847,65.7864 359.18,65.2864 379.5,64.5C 383.932,66.5591 388.599,68.0591 393.5,69C 394.833,70 396.167,71 397.5,72C 395.341,72.912 393.175,73.7454 391,74.5C 388.772,72.8866 386.272,72.22 383.5,72.5C 383.5,73.5 383.5,74.5 383.5,75.5C 388.787,76.3424 394.12,76.6757 399.5,76.5C 398.813,70.4012 400.146,69.9012 403.5,75C 408.469,75.4637 409.802,77.6303 407.5,81.5C 408.098,82.7946 408.598,84.1279 409,85.5C 410.573,86.0865 412.073,87.2531 413.5,89C 410.5,90 407.5,91 404.5,92C 403.131,94.2393 403.631,96.0726 406,97.5C 408.826,95.6602 411.993,94.9935 415.5,95.5C 415.664,98.1873 415.497,100.854 415,103.5C 413.445,105.443 412.278,107.61 411.5,110C 411.899,112.337 411.899,114.837 411.5,117.5 Z"/></g>
<g><path style="opacity:1" fill="#d27949" d="M 261.5,69.5 C 265.57,74.6788 268.903,80.3455 271.5,86.5C 267.684,85.9103 266.017,83.5769 266.5,79.5C 265.5,79.5 264.5,79.5 263.5,79.5C 263.243,76.0678 262.576,72.7345 261.5,69.5 Z"/></g>
<g><path style="opacity:1" fill="#7e5b97" d="M 411.5,117.5 C 411.899,114.837 411.899,112.337 411.5,110C 412.278,107.61 413.445,105.443 415,103.5C 415.497,100.854 415.664,98.1873 415.5,95.5C 411.993,94.9935 408.826,95.6602 406,97.5C 403.631,96.0726 403.131,94.2393 404.5,92C 407.5,91 410.5,90 413.5,89C 412.073,87.2531 410.573,86.0865 409,85.5C 408.598,84.1279 408.098,82.7946 407.5,81.5C 409.802,77.6303 408.469,75.4637 403.5,75C 400.146,69.9012 398.813,70.4012 399.5,76.5C 394.12,76.6757 388.787,76.3424 383.5,75.5C 383.5,74.5 383.5,73.5 383.5,72.5C 386.272,72.22 388.772,72.8866 391,74.5C 393.175,73.7454 395.341,72.912 397.5,72C 396.167,71 394.833,70 393.5,69C 388.599,68.0591 383.932,66.5591 379.5,64.5C 359.18,65.2864 338.847,65.7864 318.5,66C 313.645,67.5196 309.978,70.5196 307.5,75C 306.207,75.49 304.873,75.6567 303.5,75.5C 303.5,76.8333 303.5,78.1667 303.5,79.5C 302.127,79.3433 300.793,79.51 299.5,80C 294.536,84.8424 290.203,90.0091 286.5,95.5C 285.596,94.791 285.263,93.791 285.5,92.5C 294.661,83.1716 303.661,73.6716 312.5,64C 338.167,63.3333 363.833,63.3333 389.5,64C 412.82,70.3234 421.32,85.1567 415,108.5C 414.1,111.718 412.933,114.718 411.5,117.5 Z"/></g>
<g><path style="opacity:1" fill="#ef6724" d="M 263.5,79.5 C 264.5,79.5 265.5,79.5 266.5,79.5C 266.017,83.5769 267.684,85.9103 271.5,86.5C 271.5,86.8333 271.5,87.1667 271.5,87.5C 273.817,91.38 275.15,95.7133 275.5,100.5C 276.959,100.433 278.292,100.766 279.5,101.5C 281.588,103.336 282.921,105.669 283.5,108.5C 282.171,114.067 284.004,118.067 289,120.5C 290.118,122.765 290.951,125.099 291.5,127.5C 289.5,128.167 288.167,129.5 287.5,131.5C 284.077,133.485 280.744,135.652 277.5,138C 276.748,138.671 276.414,139.504 276.5,140.5C 273.133,143.185 269.799,145.852 266.5,148.5C 265.5,148.5 264.5,148.5 263.5,148.5C 263.5,146.833 263.5,145.167 263.5,143.5C 262.167,143.5 260.833,143.5 259.5,143.5C 259.5,142.5 259.5,141.5 259.5,140.5C 258.167,140.5 256.833,140.5 255.5,140.5C 255.669,138.088 255.003,135.921 253.5,134C 257.101,132.568 259.768,133.901 261.5,138C 263.134,138.494 264.801,138.66 266.5,138.5C 266.491,136.692 266.991,135.025 268,133.5C 270.368,132.631 271.868,130.965 272.5,128.5C 271.675,127.614 270.675,127.281 269.5,127.5C 269.892,124.278 269.392,121.278 268,118.5C 265.167,120.836 264,123.836 264.5,127.5C 265.833,127.5 267.167,127.5 268.5,127.5C 268.505,131 266.838,132.5 263.5,132C 262.215,127.797 261.215,123.63 260.5,119.5C 260.631,118.761 260.464,118.094 260,117.5C 257.057,115.882 254.557,113.882 252.5,111.5C 250.982,107.628 249.316,103.795 247.5,100C 250.754,96.7889 250.087,95.2889 245.5,95.5C 244.956,93.4205 244.122,91.4205 243,89.5C 241.989,88.6634 240.822,88.33 239.5,88.5C 237.684,86.8816 236.351,84.8816 235.5,82.5C 235.162,80.146 234.662,77.8127 234,75.5C 232.198,74.2107 231.031,72.5441 230.5,70.5C 230.5,69.5 230.5,68.5 230.5,67.5C 238.551,67.0897 246.885,67.0897 255.5,67.5C 255.343,68.8734 255.51,70.2068 256,71.5C 256.965,69.7397 258.132,69.4063 259.5,70.5C 258.691,72.0709 258.357,73.7376 258.5,75.5C 259.833,75.5 261.167,75.5 262.5,75.5C 262.232,77.099 262.566,78.4324 263.5,79.5 Z"/></g>
<g><path style="opacity:1" fill="#534367" d="M 127.5,88.5 C 127.5,90.8333 127.5,93.1667 127.5,95.5C 128.5,95.5 129.5,95.5 130.5,95.5C 138.5,95.5 146.5,95.5 154.5,95.5C 155.167,95.5 155.833,95.5 156.5,95.5C 156.5,95.8333 156.5,96.1667 156.5,96.5C 145.813,96.832 135.146,96.4987 124.5,95.5C 125.33,92.9836 126.33,90.6502 127.5,88.5 Z"/></g>
<g><path style="opacity:1" fill="#7e708a" d="M 285.5,92.5 C 285.263,93.791 285.596,94.791 286.5,95.5C 316.5,95.5 346.5,95.5 376.5,95.5C 376.5,95.8333 376.5,96.1667 376.5,96.5C 346.167,96.5 315.833,96.5 285.5,96.5C 284.448,96.6495 283.448,96.4828 282.5,96C 283.636,94.8549 284.636,93.6883 285.5,92.5 Z"/></g>
<g><path style="opacity:1" fill="#db7037" d="M 239.5,88.5 C 240.822,88.33 241.989,88.6634 243,89.5C 244.122,91.4205 244.956,93.4205 245.5,95.5C 250.087,95.2889 250.754,96.7889 247.5,100C 249.316,103.795 250.982,107.628 252.5,111.5C 247.378,104.252 243.044,96.5857 239.5,88.5 Z"/></g>
<g><path style="opacity:1" fill="#d37a49" d="M 271.5,87.5 C 274.716,91.771 277.383,96.4376 279.5,101.5C 278.292,100.766 276.959,100.433 275.5,100.5C 275.15,95.7133 273.817,91.38 271.5,87.5 Z"/></g>
<g><path style="opacity:1" fill="#847293" d="M 119.5,110.5 C 130.34,109.176 141.34,109.176 152.5,110.5C 152.376,111.107 152.043,111.44 151.5,111.5C 141.013,110.506 130.346,110.172 119.5,110.5 Z"/></g>
<g><path style="opacity:1" fill="#f8edfb" d="M 285.5,96.5 C 315.833,96.5 346.167,96.5 376.5,96.5C 382.208,99.8731 384.042,104.873 382,111.5C 379.14,118.016 374.307,122.35 367.5,124.5C 367.351,123.448 367.517,122.448 368,121.5C 368.333,121.833 368.667,122.167 369,122.5C 371.748,120.542 374.582,118.709 377.5,117C 376.289,115.887 376.289,114.72 377.5,113.5C 378.76,112.618 379.926,111.618 381,110.5C 380.108,108.077 379.274,104.91 378.5,101C 374.931,100.61 371.597,99.6101 368.5,98C 340.664,97.8323 312.997,97.3323 285.5,96.5 Z"/></g>
<g><path style="opacity:1" fill="#db723c" d="M 283.5,108.5 C 286.499,113.163 289.499,117.83 292.5,122.5C 293.11,123.391 293.443,124.391 293.5,125.5C 293.5,126.167 293.5,126.833 293.5,127.5C 292.833,127.5 292.167,127.5 291.5,127.5C 290.951,125.099 290.118,122.765 289,120.5C 284.004,118.067 282.171,114.067 283.5,108.5 Z"/></g>
<g><path style="opacity:1" fill="#522975" d="M 143.5,134.5 C 143.737,135.791 143.404,136.791 142.5,137.5C 138.09,138.489 136.757,140.989 138.5,145C 138.419,147.557 137.253,149.39 135,150.5C 134.28,155.861 132.613,160.861 130,165.5C 129.226,171.196 128.393,176.863 127.5,182.5C 126.127,182.343 124.793,182.51 123.5,183C 125.063,183.759 126.063,184.926 126.5,186.5C 126.5,186.833 126.5,187.167 126.5,187.5C 123.353,187.923 120.186,188.256 117,188.5C 110.298,186.894 103.465,186.227 96.5,186.5C 96.5,185.167 96.5,183.833 96.5,182.5C 98.4109,182.426 99.5776,181.426 100,179.5C 100.333,176.833 100.667,174.167 101,171.5C 101.415,169.709 102.415,168.376 104,167.5C 104.371,161.656 106.205,156.323 109.5,151.5C 110.48,148.914 110.813,146.247 110.5,143.5C 111.5,143.5 112.5,143.5 113.5,143.5C 113.556,140.606 114.39,137.939 116,135.5C 115.474,128.818 117.141,122.818 121,117.5C 121.495,115.527 121.662,113.527 121.5,111.5C 130.167,111.5 138.833,111.5 147.5,111.5C 146.247,119.192 144.914,126.859 143.5,134.5 Z"/></g>
<g><path style="opacity:1" fill="#d9723f" d="M 252.5,111.5 C 254.557,113.882 257.057,115.882 260,117.5C 260.464,118.094 260.631,118.761 260.5,119.5C 260.816,122.978 260.316,126.312 259,129.5C 257.556,131.155 255.722,131.822 253.5,131.5C 254.806,130.533 255.473,129.199 255.5,127.5C 257.346,127.778 258.68,127.111 259.5,125.5C 256.778,120.984 254.445,116.317 252.5,111.5 Z"/></g>
<g><path style="opacity:1" fill="#fbebfd" d="M 292.5,122.5 C 295.813,123.045 299.146,123.545 302.5,124C 323.497,124.5 344.497,124.667 365.5,124.5C 341.672,125.498 317.672,125.831 293.5,125.5C 293.443,124.391 293.11,123.391 292.5,122.5 Z"/></g>
<g><path style="opacity:1" fill="#816693" d="M 376.5,95.5 C 378.867,96.1637 380.867,97.497 382.5,99.5C 383.663,104.802 383.829,110.136 383,115.5C 380.157,118.011 377.657,120.844 375.5,124C 373.392,124.36 371.392,125.027 369.5,126C 346.791,126.187 324.124,126.687 301.5,127.5C 298.833,127.5 296.167,127.5 293.5,127.5C 293.5,126.833 293.5,126.167 293.5,125.5C 317.672,125.831 341.672,125.498 365.5,124.5C 366.167,124.5 366.833,124.5 367.5,124.5C 374.307,122.35 379.14,118.016 382,111.5C 384.042,104.873 382.208,99.8731 376.5,96.5C 376.5,96.1667 376.5,95.8333 376.5,95.5 Z"/></g>
<g><path style="opacity:1" fill="#815794" d="M 291.5,127.5 C 292.167,127.5 292.833,127.5 293.5,127.5C 296.167,127.5 298.833,127.5 301.5,127.5C 301.286,129.144 301.62,130.644 302.5,132C 300.276,136.711 296.776,140.211 292,142.5C 290.644,141.62 289.144,141.286 287.5,141.5C 287.5,140.167 287.5,138.833 287.5,137.5C 293.826,139.159 296.826,136.826 296.5,130.5C 291.989,131.422 287.989,133.422 284.5,136.5C 285.416,141.61 283.082,143.943 277.5,143.5C 277.238,144.978 277.571,146.311 278.5,147.5C 281.502,148.51 282.668,150.51 282,153.5C 278.236,155.203 275.736,154.036 274.5,150C 273.128,149.598 271.795,149.098 270.5,148.5C 264.498,150.376 263.165,153.876 266.5,159C 265.207,159.49 263.873,159.657 262.5,159.5C 261.99,163.884 261.157,168.218 260,172.5C 259.092,174.439 257.592,175.439 255.5,175.5C 258.14,168.277 260.473,160.943 262.5,153.5C 263.803,151.858 265.136,150.191 266.5,148.5C 269.799,145.852 273.133,143.185 276.5,140.5C 281.065,138.602 284.732,135.602 287.5,131.5C 288.167,129.5 289.5,128.167 291.5,127.5 Z"/></g>
<g><path style="opacity:1" fill="#f18371" d="M 209.5,63.5 C 214.633,71.2829 219.3,79.2829 223.5,87.5C 230.537,100.249 237.537,112.915 244.5,125.5C 238.117,132.196 231.117,138.196 223.5,143.5C 221.076,143.192 218.743,143.526 216.5,144.5C 216.709,145.086 217.043,145.586 217.5,146C 214.324,147.065 212.324,149.231 211.5,152.5C 205.655,154.127 201.322,152.294 198.5,147C 196.5,146.667 194.5,146.333 192.5,146C 191.748,145.329 191.414,144.496 191.5,143.5C 197.958,138.195 204.792,133.528 212,129.5C 212.667,126.167 212.667,122.833 212,119.5C 210.644,118.62 209.144,118.286 207.5,118.5C 198.296,103.42 189.629,88.0871 181.5,72.5C 180.363,69.7707 179.03,67.104 177.5,64.5C 188.146,63.5013 198.813,63.168 209.5,63.5 Z"/></g>
<g><path style="opacity:1" fill="#bd5e61" d="M 287.5,131.5 C 284.732,135.602 281.065,138.602 276.5,140.5C 276.414,139.504 276.748,138.671 277.5,138C 280.744,135.652 284.077,133.485 287.5,131.5 Z"/></g>
<g><path style="opacity:1" fill="#e68a80" d="M 207.5,118.5 C 209.144,118.286 210.644,118.62 212,119.5C 212.667,122.833 212.667,126.167 212,129.5C 204.792,133.528 197.958,138.195 191.5,143.5C 197.471,137.699 203.637,132.033 210,126.5C 209.571,123.829 208.737,121.162 207.5,118.5 Z"/></g>
<g><path style="opacity:1" fill="#faf6f1" d="M 223.5,63.5 C 227.779,69.7414 231.779,76.0747 235.5,82.5C 236.351,84.8816 237.684,86.8816 239.5,88.5C 243.044,96.5857 247.378,104.252 252.5,111.5C 254.445,116.317 256.778,120.984 259.5,125.5C 258.68,127.111 257.346,127.778 255.5,127.5C 255.473,129.199 254.806,130.533 253.5,131.5C 248.539,135.126 243.872,139.126 239.5,143.5C 234.437,148.568 229.104,153.235 223.5,157.5C 220.916,159.417 218.582,161.751 216.5,164.5C 211.868,167.798 207.534,171.464 203.5,175.5C 201.167,176.5 199.5,178.167 198.5,180.5C 195.527,181.81 193.193,183.81 191.5,186.5C 189.606,187.048 187.94,188.048 186.5,189.5C 197.814,190.499 209.147,190.832 220.5,190.5C 207.968,191.469 195.468,191.802 183,191.5C 180.402,190.32 178.736,188.32 178,185.5C 177.257,187.441 177.424,189.274 178.5,191C 164.994,191.827 151.66,191.66 138.5,190.5C 150.012,190.828 161.346,190.495 172.5,189.5C 189.496,174.171 206.496,158.838 223.5,143.5C 231.117,138.196 238.117,132.196 244.5,125.5C 237.537,112.915 230.537,100.249 223.5,87.5C 224.673,82.6424 226.006,77.8091 227.5,73C 227.33,70.4731 226.33,69.9731 224.5,71.5C 223.52,68.9135 223.187,66.2469 223.5,63.5 Z"/></g>
<g><path style="opacity:1" fill="#f7ecfa" d="M 111.5,135.5 C 107.642,147.288 103.642,158.955 99.5,170.5C 98.5593,166.982 99.3927,163.315 102,159.5C 104.256,152.986 105.923,146.319 107,139.5C 107.876,137.365 109.376,136.031 111.5,135.5 Z"/></g>
<g><path style="opacity:1" fill="#cc784e" d="M 239.5,143.5 C 235.733,149.932 230.399,154.599 223.5,157.5C 229.104,153.235 234.437,148.568 239.5,143.5 Z"/></g>
<g><path style="opacity:1" fill="#503369" d="M 119.5,110.5 C 130.346,110.172 141.013,110.506 151.5,111.5C 149.209,119.376 146.543,127.042 143.5,134.5C 144.914,126.859 146.247,119.192 147.5,111.5C 138.833,111.5 130.167,111.5 121.5,111.5C 121.662,113.527 121.495,115.527 121,117.5C 117.141,122.818 115.474,128.818 116,135.5C 114.39,137.939 113.556,140.606 113.5,143.5C 112.5,143.5 111.5,143.5 110.5,143.5C 110.813,146.247 110.48,148.914 109.5,151.5C 106.205,156.323 104.371,161.656 104,167.5C 102.415,168.376 101.415,169.709 101,171.5C 100.667,174.167 100.333,176.833 100,179.5C 99.5776,181.426 98.4109,182.426 96.5,182.5C 97.5,178.5 98.5,174.5 99.5,170.5C 103.642,158.955 107.642,147.288 111.5,135.5C 114.167,127.167 116.833,118.833 119.5,110.5 Z"/></g>
<g><path style="opacity:1" fill="#4f3169" d="M 142.5,137.5 C 137.534,154.064 132.2,170.397 126.5,186.5C 126.063,184.926 125.063,183.759 123.5,183C 124.793,182.51 126.127,182.343 127.5,182.5C 128.393,176.863 129.226,171.196 130,165.5C 132.613,160.861 134.28,155.861 135,150.5C 137.253,149.39 138.419,147.557 138.5,145C 136.757,140.989 138.09,138.489 142.5,137.5 Z"/></g>
<g><path style="opacity:1" fill="#de9487" d="M 190.5,143.5 C 188.541,147.126 185.874,150.126 182.5,152.5C 180.273,153.401 179.273,155.067 179.5,157.5C 178.167,157.5 176.833,157.5 175.5,157.5C 180.126,152.544 185.126,147.878 190.5,143.5 Z"/></g>
<g><path style="opacity:1" fill="#c98358" d="M 261.5,153.5 C 260.833,154.5 260.167,155.5 259.5,156.5C 258.167,157.167 256.833,157.833 255.5,158.5C 255.782,157.222 256.449,156.222 257.5,155.5C 258.605,154.4 259.938,153.733 261.5,153.5 Z"/></g>
<g><path style="opacity:1" fill="#7a5e8e" d="M 390.5,143.5 C 381.386,150.551 371.053,155.218 359.5,157.5C 337.372,158.146 315.372,158.813 293.5,159.5C 291.3,164.767 289.3,170.1 287.5,175.5C 288.167,170.167 288.833,164.833 289.5,159.5C 287.833,159.5 286.167,159.5 284.5,159.5C 284.5,158.5 284.5,157.5 284.5,156.5C 287.281,157.823 289.947,157.656 292.5,156C 317.518,155.847 342.518,155.18 367.5,154C 374.92,149.811 382.586,146.311 390.5,143.5 Z"/></g>
<g><path style="opacity:1" fill="#fbebfe" d="M 359.5,157.5 C 359.389,158.117 359.056,158.617 358.5,159C 336.836,159.5 315.169,159.667 293.5,159.5C 315.372,158.813 337.372,158.146 359.5,157.5 Z"/></g>
<g><path style="opacity:1" fill="#f48170" d="M 175.5,157.5 C 176.833,157.5 178.167,157.5 179.5,157.5C 179.273,155.067 180.273,153.401 182.5,152.5C 183.5,152.5 184.5,152.5 185.5,152.5C 185.5,153.833 185.5,155.167 185.5,156.5C 186.873,156.343 188.207,156.51 189.5,157C 188.391,158.813 189.058,159.646 191.5,159.5C 189.533,156.589 188.533,153.256 188.5,149.5C 189.5,149.5 190.5,149.5 191.5,149.5C 191.5,151.5 191.5,153.5 191.5,155.5C 194.257,155.378 196.257,156.545 197.5,159C 196.552,159.483 195.552,159.649 194.5,159.5C 194.575,162.206 194.908,164.873 195.5,167.5C 194.167,167.5 192.833,167.5 191.5,167.5C 191.5,168.5 191.5,169.5 191.5,170.5C 188.231,171.926 185.065,173.593 182,175.5C 178.379,173.257 175.212,170.424 172.5,167C 171.552,166.517 170.552,166.351 169.5,166.5C 169.167,163.5 170.5,162.167 173.5,162.5C 173.831,160.678 174.498,159.011 175.5,157.5 Z"/></g>
<g><path style="opacity:1" fill="#e96a28" d="M 266.5,148.5 C 265.136,150.191 263.803,151.858 262.5,153.5C 262.167,153.5 261.833,153.5 261.5,153.5C 259.938,153.733 258.605,154.4 257.5,155.5C 256.449,156.222 255.782,157.222 255.5,158.5C 251.461,163.54 246.794,167.873 241.5,171.5C 241.52,169.857 240.853,168.524 239.5,167.5C 235.927,166.888 233.26,165.055 231.5,162C 228.854,161.503 226.187,161.336 223.5,161.5C 223.66,163.199 223.494,164.866 223,166.5C 221.599,164.808 219.766,164.141 217.5,164.5C 217.167,167.5 218.5,168.833 221.5,168.5C 221.5,169.833 221.5,171.167 221.5,172.5C 219.208,172.756 217.041,172.423 215,171.5C 213.312,172.325 213.145,173.325 214.5,174.5C 213.5,175.167 212.5,175.833 211.5,176.5C 212.167,176.833 212.833,177.167 213.5,177.5C 215.577,176.063 217.91,175.396 220.5,175.5C 220.5,177.167 220.5,178.833 220.5,180.5C 213.085,180.24 205.752,180.24 198.5,180.5C 199.5,178.167 201.167,176.5 203.5,175.5C 204.833,175.5 206.167,175.5 207.5,175.5C 207.5,174.5 207.5,173.5 207.5,172.5C 211.059,170.616 214.059,167.949 216.5,164.5C 218.582,161.751 220.916,159.417 223.5,157.5C 230.399,154.599 235.733,149.932 239.5,143.5C 243.872,139.126 248.539,135.126 253.5,131.5C 255.722,131.822 257.556,131.155 259,129.5C 260.316,126.312 260.816,122.978 260.5,119.5C 261.215,123.63 262.215,127.797 263.5,132C 266.838,132.5 268.505,131 268.5,127.5C 267.167,127.5 265.833,127.5 264.5,127.5C 264,123.836 265.167,120.836 268,118.5C 269.392,121.278 269.892,124.278 269.5,127.5C 270.675,127.281 271.675,127.614 272.5,128.5C 271.868,130.965 270.368,132.631 268,133.5C 266.991,135.025 266.491,136.692 266.5,138.5C 264.801,138.66 263.134,138.494 261.5,138C 259.768,133.901 257.101,132.568 253.5,134C 255.003,135.921 255.669,138.088 255.5,140.5C 256.833,140.5 258.167,140.5 259.5,140.5C 259.5,141.5 259.5,142.5 259.5,143.5C 260.833,143.5 262.167,143.5 263.5,143.5C 263.5,145.167 263.5,146.833 263.5,148.5C 264.5,148.5 265.5,148.5 266.5,148.5 Z"/></g>
<g><path style="opacity:1" fill="#f06621" d="M 257.5,155.5 C 255.716,154.107 253.716,153.607 251.5,154C 248.919,156.16 248.919,158.326 251.5,160.5C 249.503,164.103 247.003,164.436 244,161.5C 240.789,164.754 239.289,164.087 239.5,159.5C 238.325,159.719 237.325,159.386 236.5,158.5C 238.334,156.502 239.334,154.168 239.5,151.5C 242.365,151.945 244.865,151.278 247,149.5C 247.559,145.814 248.226,142.147 249,138.5C 249.667,137.167 250.667,136.167 252,135.5C 253.252,138.014 253.752,140.68 253.5,143.5C 255.288,143.215 256.955,143.548 258.5,144.5C 257.674,145.451 257.508,146.451 258,147.5C 259.049,146.483 260.216,146.316 261.5,147C 262.406,148.699 262.739,150.533 262.5,152.5C 259.722,152.978 257.722,151.978 256.5,149.5C 256.167,150 255.833,150.5 255.5,151C 256.414,152.406 257.08,153.906 257.5,155.5 Z"/></g>
<g><path style="opacity:1" fill="#ee6823" d="M 241.5,171.5 C 237.124,170.852 234.124,172.518 232.5,176.5C 230.484,175.294 228.484,175.294 226.5,176.5C 227.689,177.429 229.022,177.762 230.5,177.5C 230.5,178.5 230.5,179.5 230.5,180.5C 228.418,183.249 226.084,185.583 223.5,187.5C 212.865,188.404 202.198,188.737 191.5,188.5C 191.5,187.833 191.5,187.167 191.5,186.5C 193.193,183.81 195.527,181.81 198.5,180.5C 205.752,180.24 213.085,180.24 220.5,180.5C 220.5,178.833 220.5,177.167 220.5,175.5C 217.91,175.396 215.577,176.063 213.5,177.5C 212.833,177.167 212.167,176.833 211.5,176.5C 212.5,175.833 213.5,175.167 214.5,174.5C 213.145,173.325 213.312,172.325 215,171.5C 217.041,172.423 219.208,172.756 221.5,172.5C 221.5,171.167 221.5,169.833 221.5,168.5C 218.5,168.833 217.167,167.5 217.5,164.5C 219.766,164.141 221.599,164.808 223,166.5C 223.494,164.866 223.66,163.199 223.5,161.5C 226.187,161.336 228.854,161.503 231.5,162C 233.26,165.055 235.927,166.888 239.5,167.5C 240.853,168.524 241.52,169.857 241.5,171.5 Z"/></g>
<g><path style="opacity:1" fill="#cd7d4d" d="M 216.5,164.5 C 214.059,167.949 211.059,170.616 207.5,172.5C 207.5,173.5 207.5,174.5 207.5,175.5C 206.167,175.5 204.833,175.5 203.5,175.5C 207.534,171.464 211.868,167.798 216.5,164.5 Z"/></g>
<g><path style="opacity:1" fill="#f8f8eb" d="M 259.5,156.5 C 259.297,158.044 258.63,159.378 257.5,160.5C 252.252,163.066 248.919,167.066 247.5,172.5C 248.873,172.657 250.207,172.49 251.5,172C 252.155,170.513 253.155,169.347 254.5,168.5C 255.627,170.269 255.127,171.603 253,172.5C 252.667,174.167 252.333,175.833 252,177.5C 249.689,175.89 247.189,174.557 244.5,173.5C 242.847,176.781 240.68,179.781 238,182.5C 237.517,181.552 237.351,180.552 237.5,179.5C 236.167,179.5 234.833,179.5 233.5,179.5C 236.209,176.825 238.876,174.158 241.5,171.5C 246.794,167.873 251.461,163.54 255.5,158.5C 256.833,157.833 258.167,157.167 259.5,156.5 Z"/></g>
<g><path style="opacity:1" fill="#ec8675" d="M 190.5,143.5 C 190.833,143.5 191.167,143.5 191.5,143.5C 191.414,144.496 191.748,145.329 192.5,146C 194.5,146.333 196.5,146.667 198.5,147C 201.322,152.294 205.655,154.127 211.5,152.5C 212.324,149.231 214.324,147.065 217.5,146C 217.043,145.586 216.709,145.086 216.5,144.5C 218.743,143.526 221.076,143.192 223.5,143.5C 206.496,158.838 189.496,174.171 172.5,189.5C 162.652,189.827 152.986,189.494 143.5,188.5C 153.605,188.949 163.605,188.449 173.5,187C 168.47,186.729 163.47,186.229 158.5,185.5C 156.267,186.615 154.101,186.615 152,185.5C 151.517,184.552 151.351,183.552 151.5,182.5C 158.461,182.565 165.461,182.899 172.5,183.5C 174.55,182.923 175.55,181.59 175.5,179.5C 171.5,179.5 167.5,179.5 163.5,179.5C 163.5,178.5 163.5,177.5 163.5,176.5C 166.066,176.344 168.566,176.678 171,177.5C 172.635,177.122 174.135,176.456 175.5,175.5C 173.639,174.472 172.305,172.972 171.5,171C 169.131,170.464 167.131,169.297 165.5,167.5C 165.08,169.353 164.747,171.187 164.5,173C 161.42,173.766 158.42,174.766 155.5,176C 156.833,177 156.833,178 155.5,179C 153.866,179.494 152.199,179.66 150.5,179.5C 158.189,171.48 166.523,164.147 175.5,157.5C 174.498,159.011 173.831,160.678 173.5,162.5C 170.5,162.167 169.167,163.5 169.5,166.5C 170.552,166.351 171.552,166.517 172.5,167C 175.212,170.424 178.379,173.257 182,175.5C 185.065,173.593 188.231,171.926 191.5,170.5C 191.5,169.5 191.5,168.5 191.5,167.5C 192.833,167.5 194.167,167.5 195.5,167.5C 194.908,164.873 194.575,162.206 194.5,159.5C 195.552,159.649 196.552,159.483 197.5,159C 196.257,156.545 194.257,155.378 191.5,155.5C 191.5,153.5 191.5,151.5 191.5,149.5C 190.5,149.5 189.5,149.5 188.5,149.5C 188.533,153.256 189.533,156.589 191.5,159.5C 189.058,159.646 188.391,158.813 189.5,157C 188.207,156.51 186.873,156.343 185.5,156.5C 185.5,155.167 185.5,153.833 185.5,152.5C 184.5,152.5 183.5,152.5 182.5,152.5C 185.874,150.126 188.541,147.126 190.5,143.5 Z"/></g>
<g><path style="opacity:1" fill="#db7537" d="M 241.5,171.5 C 238.876,174.158 236.209,176.825 233.5,179.5C 232.609,180.11 231.609,180.443 230.5,180.5C 230.5,179.5 230.5,178.5 230.5,177.5C 229.022,177.762 227.689,177.429 226.5,176.5C 228.484,175.294 230.484,175.294 232.5,176.5C 234.124,172.518 237.124,170.852 241.5,171.5 Z"/></g>
<g><path style="opacity:1" fill="#f68175" d="M 143.5,188.5 C 143.5,187.5 143.5,186.5 143.5,185.5C 145.239,182.757 147.573,180.757 150.5,179.5C 152.199,179.66 153.866,179.494 155.5,179C 156.833,178 156.833,177 155.5,176C 158.42,174.766 161.42,173.766 164.5,173C 164.747,171.187 165.08,169.353 165.5,167.5C 167.131,169.297 169.131,170.464 171.5,171C 172.305,172.972 173.639,174.472 175.5,175.5C 174.135,176.456 172.635,177.122 171,177.5C 168.566,176.678 166.066,176.344 163.5,176.5C 163.5,177.5 163.5,178.5 163.5,179.5C 167.5,179.5 171.5,179.5 175.5,179.5C 175.55,181.59 174.55,182.923 172.5,183.5C 165.461,182.899 158.461,182.565 151.5,182.5C 151.351,183.552 151.517,184.552 152,185.5C 154.101,186.615 156.267,186.615 158.5,185.5C 163.47,186.229 168.47,186.729 173.5,187C 163.605,188.449 153.605,188.949 143.5,188.5 Z"/></g>
<g><path style="opacity:1" fill="#4d3068" d="M 96.5,182.5 C 96.5,183.833 96.5,185.167 96.5,186.5C 103.465,186.227 110.298,186.894 117,188.5C 120.186,188.256 123.353,187.923 126.5,187.5C 126.5,188.167 126.5,188.833 126.5,189.5C 116.167,189.5 105.833,189.5 95.5,189.5C 95.5,188.167 95.5,186.833 95.5,185.5C 95.2627,184.209 95.596,183.209 96.5,182.5 Z"/></g>
<g><path style="opacity:1" fill="#d27136" d="M 223.5,187.5 C 222.71,188.401 221.71,189.068 220.5,189.5C 210.652,189.827 200.986,189.494 191.5,188.5C 202.198,188.737 212.865,188.404 223.5,187.5 Z"/></g>
<g><path style="opacity:1" fill="#785f8d" d="M 255.5,177.5 C 255.5,181.167 255.5,184.833 255.5,188.5C 263.383,188.181 271.216,188.181 279,188.5C 279.833,188.167 280.667,187.833 281.5,187.5C 282.72,184.358 284.387,181.691 286.5,179.5C 285.193,182.725 284.193,186.059 283.5,189.5C 273.478,189.832 263.478,189.499 253.5,188.5C 253.137,187.817 252.804,187.15 252.5,186.5C 252.928,183.215 253.928,180.215 255.5,177.5 Z"/></g>
<g><path style="opacity:1" fill="#746081" d="M 95.5,185.5 C 95.5,186.833 95.5,188.167 95.5,189.5C 105.833,189.5 116.167,189.5 126.5,189.5C 115.66,190.824 104.66,190.824 93.5,189.5C 93.9943,187.974 94.661,186.641 95.5,185.5 Z"/></g>
<g><path style="opacity:1" fill="#d7a89d" d="M 143.5,185.5 C 143.5,186.5 143.5,187.5 143.5,188.5C 152.986,189.494 162.652,189.827 172.5,189.5C 161.346,190.495 150.012,190.828 138.5,190.5C 139.082,189.069 139.915,187.736 141,186.5C 141.671,185.748 142.504,185.414 143.5,185.5 Z"/></g>
<g><path style="opacity:1" fill="#cc9774" d="M 191.5,186.5 C 191.5,187.167 191.5,187.833 191.5,188.5C 200.986,189.494 210.652,189.827 220.5,189.5C 220.5,189.833 220.5,190.167 220.5,190.5C 209.147,190.832 197.814,190.499 186.5,189.5C 187.94,188.048 189.606,187.048 191.5,186.5 Z"/></g>
<g><path style="opacity:1" fill="#9782a0" d="M 252.5,186.5 C 252.804,187.15 253.137,187.817 253.5,188.5C 263.478,189.499 273.478,189.832 283.5,189.5C 273.013,190.494 262.346,190.828 251.5,190.5C 251.232,188.901 251.566,187.568 252.5,186.5 Z"/></g>
<g><path style="opacity:1" fill="#b7a4c3" d="M 179.5,222.5 C 189.319,221.506 199.319,221.173 209.5,221.5C 211.288,221.215 212.955,221.548 214.5,222.5C 214.376,223.107 214.043,223.44 213.5,223.5C 202.346,222.505 191.012,222.172 179.5,222.5 Z"/></g>
<g><path style="opacity:1" fill="#b8a5c3" d="M 216.5,222.5 C 228.655,221.505 240.989,221.171 253.5,221.5C 253.672,222.492 253.338,223.158 252.5,223.5C 240.678,222.505 228.678,222.172 216.5,222.5 Z"/></g>
<g><path style="opacity:1" fill="#c7b7d2" d="M 363.5,222.5 C 365.81,221.836 368.31,221.503 371,221.5C 373.929,221.525 376.429,222.191 378.5,223.5C 378.167,223.5 377.833,223.5 377.5,223.5C 373.03,222.514 368.363,222.181 363.5,222.5 Z"/></g>
<g><path style="opacity:1" fill="#483159" d="M 177.5,223.5 C 177.842,222.662 178.508,222.328 179.5,222.5C 191.012,222.172 202.346,222.505 213.5,223.5C 212.833,224.167 212.167,224.833 211.5,225.5C 200.35,223.595 189.017,222.929 177.5,223.5 Z"/></g>
<g><path style="opacity:1" fill="#756383" d="M 363.5,222.5 C 368.363,222.181 373.03,222.514 377.5,223.5C 373.029,222.911 369.029,223.577 365.5,225.5C 364.599,224.71 363.932,223.71 363.5,222.5 Z"/></g>
<g><path style="opacity:1" fill="#4f2771" d="M 216.5,223.5 C 227.505,223.333 238.505,223.5 249.5,224C 246.012,226.215 242.845,228.715 240,231.5C 237.825,231.166 235.992,230.166 234.5,228.5C 233.167,229.5 231.833,230.5 230.5,231.5C 225.966,239.561 223.633,248.227 223.5,257.5C 223.737,258.791 223.404,259.791 222.5,260.5C 222.631,259.761 222.464,259.094 222,258.5C 220.67,262.007 218.17,263.673 214.5,263.5C 215.08,259.19 215.414,254.857 215.5,250.5C 215.5,250.167 215.5,249.833 215.5,249.5C 217.451,248.284 218.951,246.618 220,244.5C 220.165,240.339 221.332,236.506 223.5,233C 220.722,231.608 217.722,231.108 214.5,231.5C 214.287,228.549 214.954,225.882 216.5,223.5 Z"/></g>
<g><path style="opacity:1" fill="#f2e7f5" d="M 348.5,223.5 C 345.149,225.854 342.482,228.854 340.5,232.5C 338.086,233.911 336.419,235.911 335.5,238.5C 329.462,243.537 324.129,249.203 319.5,255.5C 317.5,257.167 315.5,258.833 313.5,260.5C 313.297,258.61 313.963,257.11 315.5,256C 306.173,255.5 296.839,255.334 287.5,255.5C 287.5,255.167 287.5,254.833 287.5,254.5C 295.84,254.666 304.173,254.5 312.5,254C 315.069,253.102 317.402,251.935 319.5,250.5C 323.588,248.746 326.255,245.746 327.5,241.5C 330.783,237.229 331.283,232.562 329,227.5C 327.961,226.29 326.794,225.29 325.5,224.5C 324.527,224.013 323.527,223.513 322.5,223C 313.173,222.5 303.839,222.334 294.5,222.5C 295.898,220.467 297.898,219.467 300.5,219.5C 305.167,220.833 309.833,220.833 314.5,219.5C 317.216,219.961 319.882,220.627 322.5,221.5C 323.442,221.392 324.275,221.059 325,220.5C 326.378,222.213 328.045,223.547 330,224.5C 330.306,226.906 331.139,229.073 332.5,231C 331.29,232.868 331.79,234.368 334,235.5C 336.556,234.781 337.723,233.114 337.5,230.5C 338.675,230.719 339.675,230.386 340.5,229.5C 342.016,227.609 343.35,225.609 344.5,223.5C 345.865,222.193 347.198,222.193 348.5,223.5 Z"/></g>
<g><path style="opacity:1" fill="#512870" d="M 175.5,223.5 C 176.167,223.5 176.833,223.5 177.5,223.5C 189.017,222.929 200.35,223.595 211.5,225.5C 209.833,227.833 207.833,229.833 205.5,231.5C 195.5,231.5 185.5,231.5 175.5,231.5C 175.5,230.5 175.5,229.5 175.5,228.5C 177.103,228.688 178.437,228.188 179.5,227C 178.409,225.45 177.076,224.283 175.5,223.5 Z"/></g>
<g><path style="opacity:1" fill="#502f69" d="M 277.5,245.5 C 276.778,245.918 276.278,246.584 276,247.5C 275.527,245.221 274.527,243.221 273,241.5C 272.667,239.167 272.333,236.833 272,234.5C 270.165,230.64 268.165,226.974 266,223.5C 263.388,226.544 260.888,229.711 258.5,233C 256.913,233.862 255.246,234.529 253.5,235C 253.854,236.626 253.854,238.459 253.5,240.5C 249.433,241.341 246.099,243.341 243.5,246.5C 242.675,247.386 241.675,247.719 240.5,247.5C 246.959,239.871 253.625,232.371 260.5,225C 263.459,222.67 266.793,222.004 270.5,223C 271.701,223.903 272.535,225.069 273,226.5C 274.347,232.888 275.847,239.221 277.5,245.5 Z"/></g>
<g><path style="opacity:1" fill="#51296e" d="M 126.5,222.5 C 128.989,222.298 131.323,222.798 133.5,224C 136.696,229.341 140.03,234.508 143.5,239.5C 143.5,239.833 143.5,240.167 143.5,240.5C 143.475,247.811 146.142,249.144 151.5,244.5C 152.635,237.34 154.302,230.34 156.5,223.5C 159.5,223.5 162.5,223.5 165.5,223.5C 162.169,234.155 158.836,244.821 155.5,255.5C 154.566,258.617 153.233,261.617 151.5,264.5C 149.262,265.537 146.929,265.703 144.5,265C 139.21,257.587 134.043,250.087 129,242.5C 127.132,246.892 125.299,251.226 123.5,255.5C 121.836,256.949 121.002,258.949 121,261.5C 119.556,263.155 117.722,263.822 115.5,263.5C 115.335,259.818 115.501,256.152 116,252.5C 117,251.5 118,250.5 119,249.5C 119.499,245.514 119.666,241.514 119.5,237.5C 120.132,231.557 122.465,226.557 126.5,222.5 Z"/></g>
<g><path style="opacity:1" fill="#502c67" d="M 175.5,223.5 C 177.076,224.283 178.409,225.45 179.5,227C 178.437,228.188 177.103,228.688 175.5,228.5C 175.5,229.5 175.5,230.5 175.5,231.5C 185.5,231.5 195.5,231.5 205.5,231.5C 205.5,232.167 205.167,232.5 204.5,232.5C 194.833,232.5 185.167,232.5 175.5,232.5C 175.5,233.833 175.5,235.167 175.5,236.5C 172.894,237.743 172.894,239.076 175.5,240.5C 172.486,242.08 170.486,241.247 169.5,238C 171.305,234.631 172.638,231.131 173.5,227.5C 171.61,227.297 170.11,227.963 169,229.5C 167.701,232.147 166.368,234.814 165,237.5C 164.666,239.847 164.833,242.181 165.5,244.5C 164.883,244.389 164.383,244.056 164,243.5C 162.407,233.683 166.241,227.016 175.5,223.5 Z"/></g>
<g><path style="opacity:1" fill="#513266" d="M 216.5,223.5 C 214.954,225.882 214.287,228.549 214.5,231.5C 217.722,231.108 220.722,231.608 223.5,233C 221.332,236.506 220.165,240.339 220,244.5C 218.951,246.618 217.451,248.284 215.5,249.5C 216.965,244.439 218.632,239.439 220.5,234.5C 215.868,233.672 211.202,233.172 206.5,233C 209.703,229.629 213.036,226.462 216.5,223.5 Z"/></g>
<g><path style="opacity:1" fill="#f5eaf8" d="M 155.5,222.5 C 152.443,230.005 149.776,237.671 147.5,245.5C 146.113,243.79 144.779,242.123 143.5,240.5C 143.5,240.167 143.5,239.833 143.5,239.5C 144.873,239.657 146.207,239.49 147.5,239C 145.203,237.84 145.536,236.84 148.5,236C 147.465,234.493 147.632,232.993 149,231.5C 149.333,231.833 149.667,232.167 150,232.5C 150.848,229.44 151.848,226.44 153,223.5C 153.671,222.748 154.504,222.414 155.5,222.5 Z"/></g>
<g><path style="opacity:1" fill="#574268" d="M 204.5,232.5 C 195.348,233.494 186.015,233.827 176.5,233.5C 176.5,234.5 176.5,235.5 176.5,236.5C 176.167,236.5 175.833,236.5 175.5,236.5C 175.5,235.167 175.5,233.833 175.5,232.5C 185.167,232.5 194.833,232.5 204.5,232.5 Z"/></g>
<g><path style="opacity:1" fill="#7d678e" d="M 294.5,223.5 C 293.457,226.056 291.79,228.223 289.5,230C 290.167,230.333 290.833,230.667 291.5,231C 300.012,231.562 308.345,232.395 316.5,233.5C 305.828,233.667 295.161,233.5 284.5,233C 287.703,229.629 291.036,226.462 294.5,223.5 Z"/></g>
<g><path style="opacity:1" fill="#7c628e" d="M 383.5,259.5 C 383.336,256.813 383.503,254.146 384,251.5C 384.71,250.027 385.876,249.36 387.5,249.5C 387.353,246.057 389.02,244.057 392.5,243.5C 398.614,236.93 404.947,230.597 411.5,224.5C 408.894,223.348 406.227,223.182 403.5,224C 400.515,227.985 397.182,231.652 393.5,235C 392.207,235.49 390.873,235.657 389.5,235.5C 393.608,231.228 397.941,227.061 402.5,223C 407.086,222.803 411.586,222.303 416,221.5C 416.167,221.833 416.333,222.167 416.5,222.5C 406.86,231.806 397.193,241.139 387.5,250.5C 385.841,253.474 384.508,256.474 383.5,259.5 Z"/></g>
<g><path style="opacity:1" fill="#4f3266" d="M 155.5,222.5 C 159.621,222.163 162.955,222.496 165.5,223.5C 162.5,223.5 159.5,223.5 156.5,223.5C 154.302,230.34 152.635,237.34 151.5,244.5C 146.142,249.144 143.475,247.811 143.5,240.5C 144.779,242.123 146.113,243.79 147.5,245.5C 149.776,237.671 152.443,230.005 155.5,222.5 Z"/></g>
<g><path style="opacity:1" fill="#fbf4fa" d="M 253.5,221.5 C 240.989,221.171 228.655,221.505 216.5,222.5C 216.5,222.833 216.5,223.167 216.5,223.5C 213.036,226.462 209.703,229.629 206.5,233C 211.202,233.172 215.868,233.672 220.5,234.5C 218.632,239.439 216.965,244.439 215.5,249.5C 215.5,249.833 215.5,250.167 215.5,250.5C 213.599,255.329 211.933,260.329 210.5,265.5C 209.204,261.631 209.204,257.631 210.5,253.5C 210.081,252.328 209.415,251.328 208.5,250.5C 207.52,253.086 207.187,255.753 207.5,258.5C 205.692,258.491 204.025,258.991 202.5,260C 198.671,264.581 194.005,266.747 188.5,266.5C 188.5,266.167 188.5,265.833 188.5,265.5C 199.397,263.436 205.731,256.936 207.5,246C 207.387,243.601 206.387,241.768 204.5,240.5C 203.251,238.864 201.584,237.697 199.5,237C 191.841,236.5 184.174,236.334 176.5,236.5C 176.5,235.5 176.5,234.5 176.5,233.5C 186.015,233.827 195.348,233.494 204.5,232.5C 205.167,232.5 205.5,232.167 205.5,231.5C 207.833,229.833 209.833,227.833 211.5,225.5C 212.167,224.833 212.833,224.167 213.5,223.5C 214.043,223.44 214.376,223.107 214.5,222.5C 212.955,221.548 211.288,221.215 209.5,221.5C 210.334,220.252 211.667,219.585 213.5,219.5C 224.567,220.573 236.067,220.573 248,219.5C 249.948,220.109 251.782,220.776 253.5,221.5 Z"/></g>
<g><path style="opacity:1" fill="#7e6790" d="M 325.5,224.5 C 326.794,225.29 327.961,226.29 329,227.5C 331.283,232.562 330.783,237.229 327.5,241.5C 326.402,238.251 326.735,235.085 328.5,232C 327.374,229.577 326.374,227.077 325.5,224.5 Z"/></g>
<g><path style="opacity:1" fill="#7c579a" d="M 377.5,223.5 C 377.833,223.5 378.167,223.5 378.5,223.5C 380.446,229.004 382.779,234.337 385.5,239.5C 386.521,237.812 387.855,236.479 389.5,235.5C 390.873,235.657 392.207,235.49 393.5,235C 397.182,231.652 400.515,227.985 403.5,224C 406.227,223.182 408.894,223.348 411.5,224.5C 404.947,230.597 398.614,236.93 392.5,243.5C 389.02,244.057 387.353,246.057 387.5,249.5C 385.876,249.36 384.71,250.027 384,251.5C 383.503,254.146 383.336,256.813 383.5,259.5C 383.443,260.609 383.11,261.609 382.5,262.5C 374.549,266.192 371.882,263.858 374.5,255.5C 375.323,253.545 375.49,251.545 375,249.5C 371.543,241.591 368.377,233.591 365.5,225.5C 369.029,223.577 373.029,222.911 377.5,223.5 Z"/></g>
<g><path style="opacity:1" fill="#f5eef7" d="M 126.5,222.5 C 122.465,226.557 120.132,231.557 119.5,237.5C 115.72,246.508 112.72,255.842 110.5,265.5C 114.167,265.5 117.833,265.5 121.5,265.5C 121.082,266.222 120.416,266.722 119.5,267C 119.833,267.333 120.167,267.667 120.5,268C 117.518,268.498 114.518,268.665 111.5,268.5C 111.649,269.552 111.483,270.552 111,271.5C 110.333,270.167 109.667,270.167 109,271.5C 109.242,269.862 110.075,268.362 111.5,267C 110.354,266.355 109.354,265.522 108.5,264.5C 107.528,266.636 105.861,267.803 103.5,268C 100.183,268.498 96.8499,268.665 93.5,268.5C 93.5,267.5 93.5,266.5 93.5,265.5C 97.226,265.823 100.893,265.489 104.5,264.5C 109,250.993 113.667,237.66 118.5,224.5C 118.007,231.473 119.007,231.973 121.5,226C 120.353,223.915 121.02,222.415 123.5,221.5C 124.417,222.127 125.417,222.461 126.5,222.5 Z"/></g>
<g><path style="opacity:1" fill="#78628a" d="M 318.5,234.5 C 319.817,237.23 319.817,240.063 318.5,243C 307.572,244.265 296.572,244.932 285.5,245C 283.593,246.122 281.593,246.955 279.5,247.5C 279.539,246.417 279.873,245.417 280.5,244.5C 291.819,243.668 303.152,243.168 314.5,243C 317.844,241.106 319.178,238.273 318.5,234.5 Z"/></g>
<g><path style="opacity:1" fill="#7d5d93" d="M 335.5,238.5 C 336.885,239.574 338.051,240.907 339,242.5C 341.235,240.798 343.735,239.798 346.5,239.5C 343.902,243.438 340.902,247.105 337.5,250.5C 333.064,255.438 328.397,260.271 323.5,265C 318.98,265.814 314.646,265.647 310.5,264.5C 311.5,263.167 312.5,261.833 313.5,260.5C 315.5,258.833 317.5,257.167 319.5,255.5C 324.129,249.203 329.462,243.537 335.5,238.5 Z"/></g>
<g><path style="opacity:1" fill="#f7f2f7" d="M 346.5,239.5 C 347.75,239.577 348.583,240.244 349,241.5C 350.148,245.453 350.982,249.453 351.5,253.5C 346.833,253.5 342.167,253.5 337.5,253.5C 337.5,252.5 337.5,251.5 337.5,250.5C 340.902,247.105 343.902,243.438 346.5,239.5 Z"/></g>
<g><path style="opacity:1" fill="#7c579a" d="M 294.5,222.5 C 303.839,222.334 313.173,222.5 322.5,223C 323.527,223.513 324.527,224.013 325.5,224.5C 326.374,227.077 327.374,229.577 328.5,232C 326.735,235.085 326.402,238.251 327.5,241.5C 326.255,245.746 323.588,248.746 319.5,250.5C 308.497,251.429 297.83,252.762 287.5,254.5C 287.5,254.833 287.5,255.167 287.5,255.5C 286.733,259.149 285.4,262.482 283.5,265.5C 280.167,265.5 276.833,265.5 273.5,265.5C 273.5,264.833 273.5,264.167 273.5,263.5C 276.024,258.911 277.358,253.911 277.5,248.5C 278.492,248.672 279.158,248.338 279.5,247.5C 281.593,246.955 283.593,246.122 285.5,245C 296.572,244.932 307.572,244.265 318.5,243C 319.817,240.063 319.817,237.23 318.5,234.5C 317.833,234.167 317.167,233.833 316.5,233.5C 308.345,232.395 300.012,231.562 291.5,231C 290.833,230.667 290.167,230.333 289.5,230C 291.79,228.223 293.457,226.056 294.5,223.5C 294.5,223.167 294.5,222.833 294.5,222.5 Z"/></g>
<g><path style="opacity:1" fill="#503066" d="M 118.5,224.5 C 113.667,237.66 109,250.993 104.5,264.5C 100.893,265.489 97.226,265.823 93.5,265.5C 96.2062,256.646 99.2062,247.979 102.5,239.5C 102.358,243.545 102.358,247.379 102.5,251C 101.552,251.483 100.552,251.649 99.5,251.5C 99.1667,255.5 98.8333,259.5 98.5,263.5C 100.722,263.822 102.556,263.155 104,261.5C 104.217,258.512 105.217,255.845 107,253.5C 107.651,248.707 107.151,244.04 105.5,239.5C 107.929,239.116 110.263,238.449 112.5,237.5C 112.338,235.473 112.505,233.473 113,231.5C 114.467,228.921 115.634,226.254 116.5,223.5C 113.833,223.5 111.167,223.5 108.5,223.5C 109.171,227.548 107.837,230.548 104.5,232.5C 105.295,229.45 106.295,226.45 107.5,223.5C 109.333,223.167 111.167,222.833 113,222.5C 115.295,222.547 117.129,223.213 118.5,224.5 Z"/></g>
<g><path style="opacity:1" fill="#4f3264" d="M 216.5,223.5 C 216.5,223.167 216.5,222.833 216.5,222.5C 228.678,222.172 240.678,222.505 252.5,223.5C 249.009,226.49 245.676,229.657 242.5,233C 238.789,233.175 235.122,233.675 231.5,234.5C 228.964,242.109 226.63,249.775 224.5,257.5C 224.167,257.5 223.833,257.5 223.5,257.5C 223.633,248.227 225.966,239.561 230.5,231.5C 231.833,230.5 233.167,229.5 234.5,228.5C 235.992,230.166 237.825,231.166 240,231.5C 242.845,228.715 246.012,226.215 249.5,224C 238.505,223.5 227.505,223.333 216.5,223.5 Z"/></g>
<g><path style="opacity:1" fill="#512771" d="M 102.5,239.5 C 103.015,237.106 103.681,234.772 104.5,232.5C 107.837,230.548 109.171,227.548 108.5,223.5C 111.167,223.5 113.833,223.5 116.5,223.5C 115.634,226.254 114.467,228.921 113,231.5C 112.505,233.473 112.338,235.473 112.5,237.5C 110.263,238.449 107.929,239.116 105.5,239.5C 107.151,244.04 107.651,248.707 107,253.5C 105.217,255.845 104.217,258.512 104,261.5C 102.556,263.155 100.722,263.822 98.5,263.5C 98.8333,259.5 99.1667,255.5 99.5,251.5C 100.552,251.649 101.552,251.483 102.5,251C 102.358,247.379 102.358,243.545 102.5,239.5 Z"/></g>
<g><path style="opacity:1" fill="#7e55a3" d="M 319.5,255.5 C 321.76,254.861 323.76,253.694 325.5,252C 326.757,247.907 329.424,245.407 333.5,244.5C 333.5,245.833 333.5,247.167 333.5,248.5C 332.5,248.5 331.5,248.5 330.5,248.5C 330.244,250.792 330.577,252.959 331.5,255C 328.123,255.724 325.79,257.724 324.5,261C 322.42,261.789 320.586,262.956 319,264.5C 317.72,264.387 316.887,263.72 316.5,262.5C 318.334,260.502 319.334,258.168 319.5,255.5 Z"/></g>
<g><path style="opacity:1" fill="#7d6192" d="M 367.5,265.5 C 354.163,265.667 340.829,265.5 327.5,265C 329.667,261.667 332.334,258.834 335.5,256.5C 335.559,259.049 334.559,261.049 332.5,262.5C 332.833,263.5 333.5,264.167 334.5,264.5C 344.781,263.524 355.114,263.191 365.5,263.5C 362.361,250.942 359.528,238.275 357,225.5C 356.311,224.643 355.478,223.977 354.5,223.5C 354.002,226.252 352.836,228.585 351,230.5C 350,229.833 349,229.167 348,228.5C 345.35,229.673 342.85,231.006 340.5,232.5C 342.482,228.854 345.149,225.854 348.5,223.5C 352.997,221.44 356.497,222.44 359,226.5C 363.013,239.517 365.846,252.517 367.5,265.5 Z"/></g>
<g><path style="opacity:1" fill="#7a5f8b" d="M 319.5,250.5 C 317.402,251.935 315.069,253.102 312.5,254C 304.173,254.5 295.84,254.666 287.5,254.5C 297.83,252.762 308.497,251.429 319.5,250.5 Z"/></g>
<g><path style="opacity:1" fill="#4f3365" d="M 204.5,240.5 C 206.387,241.768 207.387,243.601 207.5,246C 205.731,256.936 199.397,263.436 188.5,265.5C 177.162,265.667 165.828,265.5 154.5,265C 156.373,263.296 158.04,261.463 159.5,259.5C 160.479,257.855 161.812,256.521 163.5,255.5C 173.56,254.81 183.56,254.144 193.5,253.5C 184.554,255.311 175.22,256.145 165.5,256C 164.044,257.745 162.711,259.578 161.5,261.5C 172.151,262.666 182.818,262.832 193.5,262C 195.221,260.473 197.221,259.473 199.5,259C 200.337,257.989 200.67,256.822 200.5,255.5C 199.325,255.719 198.325,255.386 197.5,254.5C 199.312,254.574 201.312,254.241 203.5,253.5C 205.549,249.271 205.882,244.938 204.5,240.5 Z"/></g>
<g><path style="opacity:1" fill="#532d73" d="M 175.5,236.5 C 175.833,236.5 176.167,236.5 176.5,236.5C 184.174,236.334 191.841,236.5 199.5,237C 201.584,237.697 203.251,238.864 204.5,240.5C 205.882,244.938 205.549,249.271 203.5,253.5C 201.312,254.241 199.312,254.574 197.5,254.5C 198.325,255.386 199.325,255.719 200.5,255.5C 200.67,256.822 200.337,257.989 199.5,259C 197.221,259.473 195.221,260.473 193.5,262C 182.818,262.832 172.151,262.666 161.5,261.5C 162.711,259.578 164.044,257.745 165.5,256C 175.22,256.145 184.554,255.311 193.5,253.5C 195.213,252.365 195.88,250.698 195.5,248.5C 186.827,248.666 178.16,248.5 169.5,248C 167.676,247.34 166.343,246.173 165.5,244.5C 164.833,242.181 164.666,239.847 165,237.5C 166.368,234.814 167.701,232.147 169,229.5C 170.11,227.963 171.61,227.297 173.5,227.5C 172.638,231.131 171.305,234.631 169.5,238C 170.486,241.247 172.486,242.08 175.5,240.5C 172.894,239.076 172.894,237.743 175.5,236.5 Z"/></g>
<g><path style="opacity:1" fill="#e9d9f0" d="M 337.5,250.5 C 337.5,251.5 337.5,252.5 337.5,253.5C 342.167,253.5 346.833,253.5 351.5,253.5C 346.684,254.326 341.684,254.826 336.5,255C 335.944,255.383 335.611,255.883 335.5,256.5C 332.334,258.834 329.667,261.667 327.5,265C 340.829,265.5 354.163,265.667 367.5,265.5C 360.842,266.166 354.008,266.5 347,266.5C 339.762,266.48 332.762,265.814 326,264.5C 323.446,265.771 320.613,266.438 317.5,266.5C 314.833,266.167 312.167,265.833 309.5,265.5C 309.624,264.893 309.957,264.56 310.5,264.5C 314.646,265.647 318.98,265.814 323.5,265C 328.397,260.271 333.064,255.438 337.5,250.5 Z"/></g>
<g><path style="opacity:1" fill="#7c579b" d="M 335.5,256.5 C 335.611,255.883 335.944,255.383 336.5,255C 341.684,254.826 346.684,254.326 351.5,253.5C 350.982,249.453 350.148,245.453 349,241.5C 348.583,240.244 347.75,239.577 346.5,239.5C 343.735,239.798 341.235,240.798 339,242.5C 338.051,240.907 336.885,239.574 335.5,238.5C 336.419,235.911 338.086,233.911 340.5,232.5C 342.85,231.006 345.35,229.673 348,228.5C 349,229.167 350,229.833 351,230.5C 352.836,228.585 354.002,226.252 354.5,223.5C 355.478,223.977 356.311,224.643 357,225.5C 359.528,238.275 362.361,250.942 365.5,263.5C 355.114,263.191 344.781,263.524 334.5,264.5C 333.5,264.167 332.833,263.5 332.5,262.5C 334.559,261.049 335.559,259.049 335.5,256.5 Z"/></g>
<g><path style="opacity:1" fill="#512771" d="M 277.5,245.5 C 277.5,246.5 277.5,247.5 277.5,248.5C 277.358,253.911 276.024,258.911 273.5,263.5C 265.16,263.666 256.827,263.5 248.5,263C 247.692,262.692 247.025,262.192 246.5,261.5C 247.63,260.378 248.297,259.044 248.5,257.5C 248.833,256.5 249.5,255.833 250.5,255.5C 255.833,255.5 261.167,255.5 266.5,255.5C 266.798,249.531 265.465,244.198 262.5,239.5C 259.573,240.757 257.239,242.757 255.5,245.5C 251.749,245.082 249.582,246.749 249,250.5C 243.375,252.618 240.209,256.618 239.5,262.5C 236.214,263.207 232.881,263.54 229.5,263.5C 229.351,262.448 229.517,261.448 230,260.5C 233.037,257.961 235.87,255.294 238.5,252.5C 239.429,251.311 239.762,249.978 239.5,248.5C 239.5,247.833 239.833,247.5 240.5,247.5C 241.675,247.719 242.675,247.386 243.5,246.5C 246.099,243.341 249.433,241.341 253.5,240.5C 253.854,238.459 253.854,236.626 253.5,235C 255.246,234.529 256.913,233.862 258.5,233C 260.888,229.711 263.388,226.544 266,223.5C 268.165,226.974 270.165,230.64 272,234.5C 272.333,236.833 272.667,239.167 273,241.5C 274.527,243.221 275.527,245.221 276,247.5C 276.278,246.584 276.778,245.918 277.5,245.5 Z"/></g>
<g><path style="opacity:1" fill="#4e3462" d="M 255.5,245.5 C 254.833,246.5 254.167,247.5 253.5,248.5C 248.473,252.86 243.806,257.527 239.5,262.5C 240.209,256.618 243.375,252.618 249,250.5C 249.582,246.749 251.749,245.082 255.5,245.5 Z"/></g>
<g><path style="opacity:1" fill="#fcfbfa" d="M 253.5,248.5 C 254.167,247.5 254.833,246.5 255.5,245.5C 257.2,245.374 258.7,244.707 260,243.5C 260.5,243.833 261,244.167 261.5,244.5C 262.393,247.084 262.726,249.751 262.5,252.5C 259.854,252.108 257.354,252.108 255,252.5C 253.812,251.437 253.312,250.103 253.5,248.5 Z"/></g>
<g><path style="opacity:1" fill="#4c315f" d="M 262.5,239.5 C 265.465,244.198 266.798,249.531 266.5,255.5C 261.167,255.5 255.833,255.5 250.5,255.5C 255.305,254.513 260.305,254.179 265.5,254.5C 264.659,249.468 263.659,244.468 262.5,239.5 Z"/></g>
<g><path style="opacity:1" fill="#e1d1e6" d="M 155.5,255.5 C 155.343,256.873 155.51,258.207 156,259.5C 157.145,258.316 158.312,258.316 159.5,259.5C 158.04,261.463 156.373,263.296 154.5,265C 165.828,265.5 177.162,265.667 188.5,265.5C 188.5,265.833 188.5,266.167 188.5,266.5C 176.829,266.667 165.162,266.5 153.5,266C 152.956,265.283 152.289,264.783 151.5,264.5C 153.233,261.617 154.566,258.617 155.5,255.5 Z"/></g>
<g><path style="opacity:1" fill="#4f3165" d="M 119.5,237.5 C 119.666,241.514 119.499,245.514 119,249.5C 118,250.5 117,251.5 116,252.5C 115.501,256.152 115.335,259.818 115.5,263.5C 117.722,263.822 119.556,263.155 121,261.5C 121.002,258.949 121.836,256.949 123.5,255.5C 123.041,258.877 122.374,262.211 121.5,265.5C 117.833,265.5 114.167,265.5 110.5,265.5C 112.72,255.842 115.72,246.508 119.5,237.5 Z"/></g>
<g><path style="opacity:1" fill="#503564" d="M 215.5,250.5 C 215.414,254.857 215.08,259.19 214.5,263.5C 218.17,263.673 220.67,262.007 222,258.5C 222.464,259.094 222.631,259.761 222.5,260.5C 222.371,262.216 222.038,263.883 221.5,265.5C 217.833,265.5 214.167,265.5 210.5,265.5C 211.933,260.329 213.599,255.329 215.5,250.5 Z"/></g>
<g><path style="opacity:1" fill="#4e3263" d="M 239.5,248.5 C 239.762,249.978 239.429,251.311 238.5,252.5C 235.87,255.294 233.037,257.961 230,260.5C 229.517,261.448 229.351,262.448 229.5,263.5C 232.881,263.54 236.214,263.207 239.5,262.5C 239.047,263.458 238.381,264.292 237.5,265C 233.129,265.828 228.795,265.661 224.5,264.5C 227.239,261.767 229.573,258.767 231.5,255.5C 234.167,253.167 236.833,250.833 239.5,248.5 Z"/></g>
<g><path style="opacity:1" fill="#4f3361" d="M 248.5,257.5 C 248.297,259.044 247.63,260.378 246.5,261.5C 247.025,262.192 247.692,262.692 248.5,263C 256.827,263.5 265.16,263.666 273.5,263.5C 273.5,264.167 273.5,264.833 273.5,265.5C 262.654,265.828 251.987,265.494 241.5,264.5C 243.5,261.833 245.833,259.5 248.5,257.5 Z"/></g>
<g><path style="opacity:1" fill="#7e648d" d="M 374.5,255.5 C 371.882,263.858 374.549,266.192 382.5,262.5C 382.5,263.5 382.5,264.5 382.5,265.5C 378.833,265.5 375.167,265.5 371.5,265.5C 371.975,261.916 372.975,258.583 374.5,255.5 Z"/></g>
<g><path style="opacity:1" fill="#d6c2e1" d="M 240.5,264.5 C 240.833,264.5 241.167,264.5 241.5,264.5C 251.987,265.494 262.654,265.828 273.5,265.5C 276.833,265.5 280.167,265.5 283.5,265.5C 276.508,266.166 269.341,266.5 262,266.5C 254.467,266.497 247.301,265.831 240.5,264.5 Z"/></g>
<g><path style="opacity:1" fill="#f1e7f4" d="M 262.5,239.5 C 263.659,244.468 264.659,249.468 265.5,254.5C 260.305,254.179 255.305,254.513 250.5,255.5C 249.5,255.833 248.833,256.5 248.5,257.5C 245.833,259.5 243.5,261.833 241.5,264.5C 241.167,264.5 240.833,264.5 240.5,264.5C 239.686,266.631 239.186,268.964 239,271.5C 238.333,270.167 237.667,270.167 237,271.5C 235.924,267.894 233.757,266.894 230.5,268.5C 227.727,267.532 225.227,266.199 223,264.5C 222.617,265.056 222.117,265.389 221.5,265.5C 222.038,263.883 222.371,262.216 222.5,260.5C 223.404,259.791 223.737,258.791 223.5,257.5C 223.833,257.5 224.167,257.5 224.5,257.5C 226.833,256.833 229.167,256.167 231.5,255.5C 229.573,258.767 227.239,261.767 224.5,264.5C 228.795,265.661 233.129,265.828 237.5,265C 238.381,264.292 239.047,263.458 239.5,262.5C 243.806,257.527 248.473,252.86 253.5,248.5C 253.312,250.103 253.812,251.437 255,252.5C 257.354,252.108 259.854,252.108 262.5,252.5C 262.726,249.751 262.393,247.084 261.5,244.5C 261,244.167 260.5,243.833 260,243.5C 258.7,244.707 257.2,245.374 255.5,245.5C 257.239,242.757 259.573,240.757 262.5,239.5 Z"/></g>
</svg>
