<?xml version="1.0" encoding="UTF-8"?>
<!DOCTYPE svg PUBLIC "-//W3C//DTD SVG 1.1//EN" "http://www.w3.org/Graphics/SVG/1.1/DTD/svg11.dtd">
<svg xmlns="http://www.w3.org/2000/svg" version="1.1" width="900px" height="497px" style="shape-rendering:geometricPrecision; text-rendering:geometricPrecision; image-rendering:optimizeQuality; fill-rule:evenodd; clip-rule:evenodd" xmlns:xlink="http://www.w3.org/1999/xlink">
<g><path style="opacity:1" fill="#f7f7f7" d="M -0.5,-0.5 C 299.5,-0.5 599.5,-0.5 899.5,-0.5C 899.5,165.167 899.5,330.833 899.5,496.5C 872.833,496.5 846.167,496.5 819.5,496.5C 819.5,490.833 819.5,485.167 819.5,479.5C 812.833,479.5 806.167,479.5 799.5,479.5C 799.5,472.833 799.5,466.167 799.5,459.5C 792.833,459.5 786.167,459.5 779.5,459.5C 779.5,452.833 779.5,446.167 779.5,439.5C 772.833,439.5 766.167,439.5 759.5,439.5C 759.5,432.833 759.5,426.167 759.5,419.5C 752.833,419.5 746.167,419.5 739.5,419.5C 739.5,412.833 739.5,406.167 739.5,399.5C 732.833,399.5 726.167,399.5 719.5,399.5C 719.5,392.833 719.5,386.167 719.5,379.5C 712.833,379.5 706.167,379.5 699.5,379.5C 699.5,372.833 699.5,366.167 699.5,359.5C 692.833,359.5 686.167,359.5 679.5,359.5C 679.5,352.833 679.5,346.167 679.5,339.5C 672.833,339.5 666.167,339.5 659.5,339.5C 659.5,332.833 659.5,326.167 659.5,319.5C 655.167,319.5 650.833,319.5 646.5,319.5C 649.366,309.567 652.032,299.567 654.5,289.5C 657.637,273.33 658.97,256.996 658.5,240.5C 658.208,227.847 656.542,215.514 653.5,203.5C 653.258,199.521 652.258,195.854 650.5,192.5C 648.532,182.589 645.198,173.256 640.5,164.5C 615.595,110.598 575.261,73.2648 519.5,52.5C 519.5,48.1667 519.5,43.8333 519.5,39.5C 512.833,39.5 506.167,39.5 499.5,39.5C 499.5,32.8333 499.5,26.1667 499.5,19.5C 492.833,19.5 486.167,19.5 479.5,19.5C 479.5,26.1667 479.5,32.8333 479.5,39.5C 472.833,39.5 466.167,39.5 459.5,39.5C 459.5,32.8333 459.5,26.1667 459.5,19.5C 452.833,19.5 446.167,19.5 439.5,19.5C 439.5,26.1667 439.5,32.8333 439.5,39.5C 432.833,39.5 426.167,39.5 419.5,39.5C 419.5,32.8333 419.5,26.1667 419.5,19.5C 412.833,19.5 406.167,19.5 399.5,19.5C 399.5,26.1667 399.5,32.8333 399.5,39.5C 392.833,39.5 386.167,39.5 379.5,39.5C 379.5,43.8333 379.5,48.1667 379.5,52.5C 353.033,62.0148 329.699,76.3481 309.5,95.5C 303.737,100.318 298.403,105.651 293.5,111.5C 290.46,114.539 287.794,117.873 285.5,121.5C 282.067,124.601 279.4,128.268 277.5,132.5C 267.767,145.961 260.101,160.627 254.5,176.5C 251.595,183.215 249.262,190.215 247.5,197.5C 247.5,198.167 247.5,198.833 247.5,199.5C 241.359,224.052 239.859,249.052 243,274.5C 244.321,281.989 245.821,289.322 247.5,296.5C 247.5,297.5 247.5,298.5 247.5,299.5C 249.942,308.17 252.942,316.503 256.5,324.5C 260.932,337.365 266.932,349.365 274.5,360.5C 288.182,381.351 304.849,399.518 324.5,415C 331.388,420.275 338.721,424.775 346.5,428.5C 353.686,433.261 361.353,437.261 369.5,440.5C 369.833,440.5 370.167,440.5 370.5,440.5C 382.867,446.181 395.867,450.181 409.5,452.5C 410.167,452.5 410.833,452.5 411.5,452.5C 414.903,453.925 418.57,454.758 422.5,455C 444.901,456.123 467.234,455.456 489.5,453C 496.092,451.584 502.426,449.75 508.5,447.5C 521.279,444.578 533.279,439.912 544.5,433.5C 556.83,427.671 568.163,420.337 578.5,411.5C 584.727,407.945 590.06,403.278 594.5,397.5C 607.348,385.992 618.348,372.992 627.5,358.5C 631.298,359.483 635.298,359.817 639.5,359.5C 639.5,366.167 639.5,372.833 639.5,379.5C 646.167,379.5 652.833,379.5 659.5,379.5C 659.5,386.167 659.5,392.833 659.5,399.5C 666.167,399.5 672.833,399.5 679.5,399.5C 679.5,406.167 679.5,412.833 679.5,419.5C 686.167,419.5 692.833,419.5 699.5,419.5C 699.5,426.167 699.5,432.833 699.5,439.5C 706.167,439.5 712.833,439.5 719.5,439.5C 719.5,446.167 719.5,452.833 719.5,459.5C 726.167,459.5 732.833,459.5 739.5,459.5C 739.5,466.167 739.5,472.833 739.5,479.5C 746.167,479.5 752.833,479.5 759.5,479.5C 759.5,485.167 759.5,490.833 759.5,496.5C 506.167,496.5 252.833,496.5 -0.5,496.5C -0.5,330.833 -0.5,165.167 -0.5,-0.5 Z"/></g>
<g><path style="opacity:1" fill="#f1f0f0" d="M 519.5,52.5 C 507.273,47.7206 494.606,44.7206 481.5,43.5C 447.029,37.183 413.362,40.183 380.5,52.5C 380.167,52.5 379.833,52.5 379.5,52.5C 379.5,48.1667 379.5,43.8333 379.5,39.5C 386.167,39.5 392.833,39.5 399.5,39.5C 399.5,32.8333 399.5,26.1667 399.5,19.5C 406.167,19.5 412.833,19.5 419.5,19.5C 419.5,26.1667 419.5,32.8333 419.5,39.5C 426.167,39.5 432.833,39.5 439.5,39.5C 439.5,32.8333 439.5,26.1667 439.5,19.5C 446.167,19.5 452.833,19.5 459.5,19.5C 459.5,26.1667 459.5,32.8333 459.5,39.5C 466.167,39.5 472.833,39.5 479.5,39.5C 479.5,32.8333 479.5,26.1667 479.5,19.5C 486.167,19.5 492.833,19.5 499.5,19.5C 499.5,26.1667 499.5,32.8333 499.5,39.5C 506.167,39.5 512.833,39.5 519.5,39.5C 519.5,43.8333 519.5,48.1667 519.5,52.5 Z"/></g>
<g><path style="opacity:1" fill="#cf2c25" d="M 481.5,43.5 C 462.171,42.7118 442.837,42.5451 423.5,43C 418.339,44.7973 413.005,45.7973 407.5,46C 398.829,49.4982 389.829,51.6649 380.5,52.5C 413.362,40.183 447.029,37.183 481.5,43.5 Z"/></g>
<g><path style="opacity:1" fill="#e50100" d="M 481.5,43.5 C 494.606,44.7206 507.273,47.7206 519.5,52.5C 575.261,73.2648 615.595,110.598 640.5,164.5C 641.483,170.357 642.983,176.024 645,181.5C 646.81,185.298 648.643,188.965 650.5,192.5C 652.258,195.854 653.258,199.521 653.5,203.5C 653.596,216.197 655.263,228.53 658.5,240.5C 658.97,256.996 657.637,273.33 654.5,289.5C 653.21,290.058 652.377,291.058 652,292.5C 649.392,304.363 646.225,316.03 642.5,327.5C 638.301,338.231 633.301,348.564 627.5,358.5C 618.348,372.992 607.348,385.992 594.5,397.5C 593.07,397.579 591.736,397.246 590.5,396.5C 589.41,397.391 589.41,398.391 590.5,399.5C 589.349,400.731 588.183,400.731 587,399.5C 585.69,401.132 585.19,402.799 585.5,404.5C 583.41,403.209 582.076,403.876 581.5,406.5C 580.675,407.386 579.675,407.719 578.5,407.5C 578.5,408.833 578.5,410.167 578.5,411.5C 568.163,420.337 556.83,427.671 544.5,433.5C 539.652,435.136 534.652,436.136 529.5,436.5C 529.5,437.5 529.5,438.5 529.5,439.5C 522.954,441.96 516.287,444.126 509.5,446C 508.944,446.383 508.611,446.883 508.5,447.5C 499.394,448.595 490.394,450.095 481.5,452C 458.169,452.5 434.836,452.667 411.5,452.5C 410.833,452.5 410.167,452.5 409.5,452.5C 408.653,451.034 407.32,450.2 405.5,450C 402.833,449.667 400.167,449.333 397.5,449C 395.714,448.804 394.381,447.971 393.5,446.5C 385.939,444.006 378.272,442.006 370.5,440.5C 370.167,440.5 369.833,440.5 369.5,440.5C 367.266,437.702 364.266,435.869 360.5,435C 360.833,434.667 361.167,434.333 361.5,434C 356.68,431.737 351.68,429.903 346.5,428.5C 338.721,424.775 331.388,420.275 324.5,415C 304.849,399.518 288.182,381.351 274.5,360.5C 274.785,358.712 274.452,357.045 273.5,355.5C 266.873,345.212 261.207,334.878 256.5,324.5C 255.41,320.222 254.41,315.888 253.5,311.5C 251.79,307.223 249.79,303.223 247.5,299.5C 247.5,298.5 247.5,297.5 247.5,296.5C 246.874,287.765 245.708,279.099 244,270.5C 243.333,256.167 243.333,241.833 244,227.5C 245.925,218.352 247.092,209.019 247.5,199.5C 247.5,198.833 247.5,198.167 247.5,197.5C 249.451,195.52 250.951,193.187 252,190.5C 252.529,185.757 253.362,181.091 254.5,176.5C 260.101,160.627 267.767,145.961 277.5,132.5C 280.933,129.399 283.6,125.732 285.5,121.5C 287.794,117.873 290.46,114.539 293.5,111.5C 294.239,111.631 294.906,111.464 295.5,111C 300.317,105.782 304.984,100.615 309.5,95.5C 329.699,76.3481 353.033,62.0148 379.5,52.5C 379.833,52.5 380.167,52.5 380.5,52.5C 389.829,51.6649 398.829,49.4982 407.5,46C 413.005,45.7973 418.339,44.7973 423.5,43C 442.837,42.5451 462.171,42.7118 481.5,43.5 Z"/></g>
<g><path style="opacity:1" fill="#ed928e" d="M 411.5,90.5 C 435.672,90.1691 459.672,90.5024 483.5,91.5C 459.831,91.3334 436.164,91.5 412.5,92C 411.5,92.3333 410.5,92.6667 409.5,93C 408.002,95.6637 406.002,97.8304 403.5,99.5C 404.75,97.0676 406.25,94.7343 408,92.5C 409.302,91.9152 410.469,91.2485 411.5,90.5 Z"/></g>
<g><path style="opacity:1" fill="#ca221f" d="M 309.5,95.5 C 304.984,100.615 300.317,105.782 295.5,111C 294.906,111.464 294.239,111.631 293.5,111.5C 298.403,105.651 303.737,100.318 309.5,95.5 Z"/></g>
<g><path style="opacity:1" fill="#c02928" d="M 496.5,136.5 C 496.167,136.5 495.833,136.5 495.5,136.5C 495.667,125.828 495.5,115.161 495,104.5C 494.626,102.509 493.793,100.842 492.5,99.5C 490.564,95.6891 487.564,93.0225 483.5,91.5C 459.672,90.5024 435.672,90.1691 411.5,90.5C 422.981,89.1676 434.814,88.501 447,88.5C 489.031,79.1096 505.531,95.1096 496.5,136.5 Z"/></g>
<g><path style="opacity:1" fill="#e50101" d="M 468.5,134.5 C 468.5,136.167 468.5,137.833 468.5,139.5C 468.167,140.167 467.833,140.833 467.5,141.5C 463.191,146.48 459.691,152.147 457,158.5C 451.695,165.916 445.529,172.583 438.5,178.5C 432.506,179.831 428.506,177.497 426.5,171.5C 424.856,168.996 423.356,166.329 422,163.5C 420.237,162.056 418.237,161.056 416,160.5C 415.5,144.17 415.333,127.837 415.5,111.5C 437.167,111.5 458.833,111.5 480.5,111.5C 480.83,118.2 480.497,124.866 479.5,131.5C 476.401,129.364 473.068,129.03 469.5,130.5C 468.754,131.736 468.421,133.07 468.5,134.5 Z"/></g>
<g><path style="opacity:1" fill="#fcf2ef" d="M 483.5,91.5 C 487.564,93.0225 490.564,95.6891 492.5,99.5C 494.364,111.366 495.03,123.366 494.5,135.5C 493.167,135.5 491.833,135.5 490.5,135.5C 487.687,135.975 485.687,134.975 484.5,132.5C 484.5,124.167 484.5,115.833 484.5,107.5C 460.328,107.169 436.328,107.502 412.5,108.5C 412.5,127.167 412.5,145.833 412.5,164.5C 412.5,167.167 412.5,169.833 412.5,172.5C 412.5,180.167 412.5,187.833 412.5,195.5C 412.5,197.5 412.5,199.5 412.5,201.5C 412.5,202.5 412.5,203.5 412.5,204.5C 412.5,205.167 412.5,205.833 412.5,206.5C 412.5,206.833 412.5,207.167 412.5,207.5C 412.167,207.5 411.833,207.5 411.5,207.5C 411.631,206.761 411.464,206.094 411,205.5C 409.692,207.134 408.858,208.968 408.5,211C 409.59,219.142 409.756,227.308 409,235.5C 408.71,233.956 408.044,232.623 407,231.5C 407.286,221.532 407.12,211.865 406.5,202.5C 407.81,199.794 408.81,196.961 409.5,194C 408.59,189.364 408.59,184.531 409.5,179.5C 408.787,177.224 408.287,174.891 408,172.5C 406.605,171.185 405.605,171.519 405,173.5C 404.501,177.016 404.667,180.516 405.5,184C 401.998,205.307 401.498,226.807 404,248.5C 405.751,250.831 405.585,253.164 403.5,255.5C 405.023,263.209 405.856,270.876 406,278.5C 406.151,281.119 406.985,283.453 408.5,285.5C 411.161,286.499 413.828,287.499 416.5,288.5C 433.697,287.84 450.863,287.173 468,286.5C 472.467,287.326 477.3,287.66 482.5,287.5C 482.329,284.203 482.995,283.869 484.5,286.5C 489.484,284.366 492.317,280.699 493,275.5C 493.5,252.502 493.667,229.502 493.5,206.5C 491.833,206.5 490.167,206.5 488.5,206.5C 488.833,205.833 489.167,205.167 489.5,204.5C 491.167,204.5 492.833,204.5 494.5,204.5C 494.5,227.833 494.5,251.167 494.5,274.5C 494.082,282.916 489.749,287.916 481.5,289.5C 457.807,289.793 434.141,289.46 410.5,288.5C 408.938,288.267 407.605,287.6 406.5,286.5C 404.228,282.954 402.228,279.287 400.5,275.5C 400.5,275.167 400.5,274.833 400.5,274.5C 400.5,250.833 400.5,227.167 400.5,203.5C 400.5,201.833 400.5,200.167 400.5,198.5C 400.5,194.833 400.5,191.167 400.5,187.5C 400.5,186.167 400.5,184.833 400.5,183.5C 401.332,157.67 401.832,131.67 402,105.5C 403.319,103.75 403.819,101.75 403.5,99.5C 406.002,97.8304 408.002,95.6637 409.5,93C 410.5,92.6667 411.5,92.3333 412.5,92C 436.164,91.5 459.831,91.3334 483.5,91.5 Z"/></g>
<g><path style="opacity:1" fill="#db7977" d="M 412.5,108.5 C 436.328,107.502 460.328,107.169 484.5,107.5C 484.5,115.833 484.5,124.167 484.5,132.5C 483.833,132.5 483.5,132.167 483.5,131.5C 483.5,123.833 483.5,116.167 483.5,108.5C 459.833,108.5 436.167,108.5 412.5,108.5 Z"/></g>
<g><path style="opacity:1" fill="#ba342f" d="M 411.5,90.5 C 410.469,91.2485 409.302,91.9152 408,92.5C 406.25,94.7343 404.75,97.0676 403.5,99.5C 402.207,100.842 401.374,102.509 401,104.5C 400.5,130.831 400.333,157.165 400.5,183.5C 400.167,183.5 399.833,183.5 399.5,183.5C 399.192,155.801 399.525,128.135 400.5,100.5C 402.457,97.5296 404.457,94.5296 406.5,91.5C 408.071,90.6906 409.738,90.3573 411.5,90.5 Z"/></g>
<g><path style="opacity:1" fill="#c9352c" d="M 285.5,121.5 C 283.6,125.732 280.933,129.399 277.5,132.5C 279.4,128.268 282.067,124.601 285.5,121.5 Z"/></g>
<g><path style="opacity:1" fill="#fcbbb6" d="M 492.5,99.5 C 493.793,100.842 494.626,102.509 495,104.5C 495.5,115.161 495.667,125.828 495.5,136.5C 493.545,137.93 491.879,137.597 490.5,135.5C 491.833,135.5 493.167,135.5 494.5,135.5C 495.03,123.366 494.364,111.366 492.5,99.5 Z"/></g>
<g><path style="opacity:1" fill="#b62e2e" d="M 412.5,108.5 C 436.167,108.5 459.833,108.5 483.5,108.5C 483.5,116.167 483.5,123.833 483.5,131.5C 482.833,124.5 482.167,117.5 481.5,110.5C 459.167,109.167 436.833,109.167 414.5,110.5C 413.503,128.326 413.17,146.326 413.5,164.5C 413.167,164.5 412.833,164.5 412.5,164.5C 412.5,145.833 412.5,127.167 412.5,108.5 Z"/></g>
<g><path style="opacity:1" fill="#b77339" d="M 481.5,138.5 C 478.296,137.04 474.962,136.54 471.5,137C 470.338,139.816 469.171,142.65 468,145.5C 467.292,146.381 466.458,147.047 465.5,147.5C 466.63,145.685 467.296,143.685 467.5,141.5C 467.833,140.833 468.167,140.167 468.5,139.5C 469.18,136.657 471.013,134.99 474,134.5C 477.059,134.944 479.559,136.277 481.5,138.5 Z"/></g>
<g><path style="opacity:1" fill="#feafa9" d="M 403.5,99.5 C 403.819,101.75 403.319,103.75 402,105.5C 401.832,131.67 401.332,157.67 400.5,183.5C 400.333,157.165 400.5,130.831 401,104.5C 401.374,102.509 402.207,100.842 403.5,99.5 Z"/></g>
<g><path style="opacity:1" fill="#9a8f40" d="M 481.5,138.5 C 483.38,138.229 484.713,138.896 485.5,140.5C 485.782,141.778 486.449,142.778 487.5,143.5C 482.922,139.865 477.589,138.198 471.5,138.5C 470.475,143.541 468.641,148.207 466,152.5C 462.777,158.273 458.611,163.273 453.5,167.5C 457.571,162.367 461.404,157.034 465,151.5C 465.49,150.207 465.657,148.873 465.5,147.5C 466.458,147.047 467.292,146.381 468,145.5C 469.171,142.65 470.338,139.816 471.5,137C 474.962,136.54 478.296,137.04 481.5,138.5 Z"/></g>
<g><path style="opacity:1" fill="#bd2313" d="M 481.5,110.5 C 482.167,117.5 482.833,124.5 483.5,131.5C 483.5,132.167 483.833,132.5 484.5,132.5C 485.687,134.975 487.687,135.975 490.5,135.5C 491.879,137.597 493.545,137.93 495.5,136.5C 495.833,136.5 496.167,136.5 496.5,136.5C 495.167,139.167 495.167,141.833 496.5,144.5C 492.859,143.194 489.193,141.86 485.5,140.5C 484.713,138.896 483.38,138.229 481.5,138.5C 479.559,136.277 477.059,134.944 474,134.5C 471.013,134.99 469.18,136.657 468.5,139.5C 468.5,137.833 468.5,136.167 468.5,134.5C 472.656,132.205 476.989,131.872 481.5,133.5C 481.5,125.833 481.5,118.167 481.5,110.5 Z"/></g>
<g><path style="opacity:1" fill="#d20909" d="M 481.5,110.5 C 481.5,118.167 481.5,125.833 481.5,133.5C 476.989,131.872 472.656,132.205 468.5,134.5C 468.421,133.07 468.754,131.736 469.5,130.5C 473.068,129.03 476.401,129.364 479.5,131.5C 480.497,124.866 480.83,118.2 480.5,111.5C 458.833,111.5 437.167,111.5 415.5,111.5C 415.333,127.837 415.5,144.17 416,160.5C 418.237,161.056 420.237,162.056 422,163.5C 423.356,166.329 424.856,168.996 426.5,171.5C 423.998,169.83 421.998,167.664 420.5,165C 418.782,164.654 417.115,164.154 415.5,163.5C 414.5,145.846 414.167,128.179 414.5,110.5C 436.833,109.167 459.167,109.167 481.5,110.5 Z"/></g>
<g><path style="opacity:1" fill="#af7e3e" d="M 485.5,140.5 C 489.193,141.86 492.859,143.194 496.5,144.5C 498.67,146.333 500.67,148.333 502.5,150.5C 500.518,150.005 498.518,149.505 496.5,149C 494.111,146.14 491.111,144.307 487.5,143.5C 486.449,142.778 485.782,141.778 485.5,140.5 Z"/></g>
<g><path style="opacity:1" fill="#b1250a" d="M 414.5,110.5 C 414.167,128.179 414.5,145.846 415.5,163.5C 417.115,164.154 418.782,164.654 420.5,165C 421.998,167.664 423.998,169.83 426.5,171.5C 428.506,177.497 432.506,179.831 438.5,178.5C 445.529,172.583 451.695,165.916 457,158.5C 459.691,152.147 463.191,146.48 467.5,141.5C 467.296,143.685 466.63,145.685 465.5,147.5C 461.021,155.104 456.021,162.438 450.5,169.5C 449.662,169.842 449.328,170.508 449.5,171.5C 445.43,174.06 441.764,177.227 438.5,181C 432.349,182.408 428.182,180.241 426,174.5C 424.729,173.117 423.229,172.117 421.5,171.5C 420.056,168.11 417.39,166.777 413.5,167.5C 413.5,166.5 413.5,165.5 413.5,164.5C 413.17,146.326 413.503,128.326 414.5,110.5 Z"/></g>
<g><path style="opacity:1" fill="#b27036" d="M 465.5,147.5 C 465.657,148.873 465.49,150.207 465,151.5C 461.404,157.034 457.571,162.367 453.5,167.5C 452.5,168.167 451.5,168.833 450.5,169.5C 456.021,162.438 461.021,155.104 465.5,147.5 Z"/></g>
<g><path style="opacity:1" fill="#7ba23d" d="M 487.5,143.5 C 491.111,144.307 494.111,146.14 496.5,149C 498.518,149.505 500.518,150.005 502.5,150.5C 502.833,150.5 503.167,150.5 503.5,150.5C 503.859,152.371 504.859,153.871 506.5,155C 510.974,156.408 515.307,158.075 519.5,160C 521.043,161.878 522.876,163.378 525,164.5C 525.635,166.635 525.301,168.635 524,170.5C 519.262,174.341 515.762,179.008 513.5,184.5C 513.167,184.5 512.833,184.5 512.5,184.5C 502.405,187.738 493.071,192.571 484.5,199C 478.545,198.885 472.878,199.885 467.5,202C 450.165,203.977 432.832,203.977 415.5,202C 414.648,200.272 413.648,200.105 412.5,201.5C 412.5,199.5 412.5,197.5 412.5,195.5C 420.938,192.45 428.605,188.116 435.5,182.5C 436.873,182.657 438.207,182.49 439.5,182C 443.037,178.631 446.371,175.131 449.5,171.5C 449.328,170.508 449.662,169.842 450.5,169.5C 451.5,168.833 452.5,168.167 453.5,167.5C 458.611,163.273 462.777,158.273 466,152.5C 468.641,148.207 470.475,143.541 471.5,138.5C 477.589,138.198 482.922,139.865 487.5,143.5 Z"/></g>
<g><path style="opacity:1" fill="#b2340f" d="M 496.5,144.5 C 500.404,145.224 503.737,147.057 506.5,150C 510.654,152.053 514.987,153.719 519.5,155C 521.938,157.88 524.938,159.713 528.5,160.5C 529.11,161.391 529.443,162.391 529.5,163.5C 521.028,158.873 512.362,154.539 503.5,150.5C 503.167,150.5 502.833,150.5 502.5,150.5C 500.67,148.333 498.67,146.333 496.5,144.5 Z"/></g>
<g><path style="opacity:1" fill="#7e4e29" d="M 412.5,164.5 C 412.833,164.5 413.167,164.5 413.5,164.5C 413.5,165.5 413.5,166.5 413.5,167.5C 417.39,166.777 420.056,168.11 421.5,171.5C 419.508,171.672 417.842,171.005 416.5,169.5C 415.833,170.833 415.167,172.167 414.5,173.5C 413.817,173.137 413.15,172.804 412.5,172.5C 412.5,169.833 412.5,167.167 412.5,164.5 Z"/></g>
<g><path style="opacity:1" fill="#a6863f" d="M 503.5,150.5 C 512.362,154.539 521.028,158.873 529.5,163.5C 529.12,166.745 527.953,169.745 526,172.5C 522.025,176.871 517.859,180.871 513.5,184.5C 515.762,179.008 519.262,174.341 524,170.5C 525.301,168.635 525.635,166.635 525,164.5C 522.876,163.378 521.043,161.878 519.5,160C 515.307,158.075 510.974,156.408 506.5,155C 504.859,153.871 503.859,152.371 503.5,150.5 Z"/></g>
<g><path style="opacity:1" fill="#c52006" d="M 528.5,160.5 C 531.309,160.588 532.642,162.088 532.5,165C 531.291,167.319 530.458,169.819 530,172.5C 525.829,176.773 521.829,181.106 518,185.5C 517.598,186.872 517.098,188.205 516.5,189.5C 511.019,190.595 506.353,193.095 502.5,197C 500.753,197.352 499.086,197.852 497.5,198.5C 501.377,196.3 504.71,193.3 507.5,189.5C 509.36,188.061 511.027,186.395 512.5,184.5C 512.833,184.5 513.167,184.5 513.5,184.5C 517.859,180.871 522.025,176.871 526,172.5C 527.953,169.745 529.12,166.745 529.5,163.5C 529.443,162.391 529.11,161.391 528.5,160.5 Z"/></g>
<g><path style="opacity:1" fill="#915425" d="M 421.5,171.5 C 423.229,172.117 424.729,173.117 426,174.5C 428.182,180.241 432.349,182.408 438.5,181C 441.764,177.227 445.43,174.06 449.5,171.5C 446.371,175.131 443.037,178.631 439.5,182C 438.207,182.49 436.873,182.657 435.5,182.5C 428.558,181.906 423.891,178.24 421.5,171.5 Z"/></g>
<g><path style="opacity:1" fill="#ce2d23" d="M 640.5,164.5 C 645.198,173.256 648.532,182.589 650.5,192.5C 648.643,188.965 646.81,185.298 645,181.5C 642.983,176.024 641.483,170.357 640.5,164.5 Z"/></g>
<g><path style="opacity:1" fill="#5c602d" d="M 421.5,171.5 C 423.891,178.24 428.558,181.906 435.5,182.5C 428.605,188.116 420.938,192.45 412.5,195.5C 412.5,187.833 412.5,180.167 412.5,172.5C 413.15,172.804 413.817,173.137 414.5,173.5C 415.167,172.167 415.833,170.833 416.5,169.5C 417.842,171.005 419.508,171.672 421.5,171.5 Z"/></g>
<g><path style="opacity:1" fill="#8b512a" d="M 399.5,183.5 C 399.833,183.5 400.167,183.5 400.5,183.5C 400.5,184.833 400.5,186.167 400.5,187.5C 394.981,191.325 388.981,194.325 382.5,196.5C 382.855,197.522 383.522,198.189 384.5,198.5C 385.5,199.167 386.5,199.833 387.5,200.5C 383.594,200.533 380.26,199.199 377.5,196.5C 384.295,194.771 390.628,191.937 396.5,188C 398.141,186.871 399.141,185.371 399.5,183.5 Z"/></g>
<g><path style="opacity:1" fill="#ce332e" d="M 254.5,176.5 C 253.362,181.091 252.529,185.757 252,190.5C 250.951,193.187 249.451,195.52 247.5,197.5C 249.262,190.215 251.595,183.215 254.5,176.5 Z"/></g>
<g><path style="opacity:1" fill="#b82316" d="M 400.5,100.5 C 399.525,128.135 399.192,155.801 399.5,183.5C 399.141,185.371 398.141,186.871 396.5,188C 390.628,191.937 384.295,194.771 377.5,196.5C 380.26,199.199 383.594,200.533 387.5,200.5C 391.787,201.707 396.12,202.707 400.5,203.5C 400.5,227.167 400.5,250.833 400.5,274.5C 398.675,252.189 397.841,229.522 398,206.5C 397.329,205.748 396.496,205.414 395.5,205.5C 395.389,204.883 395.056,204.383 394.5,204C 388.315,202.355 381.981,201.021 375.5,200C 371.534,197.618 371.534,195.285 375.5,193C 378.817,192.502 382.15,192.335 385.5,192.5C 385.5,191.5 385.5,190.5 385.5,189.5C 387.199,189.66 388.866,189.494 390.5,189C 393.102,186.869 395.768,185.035 398.5,183.5C 398.333,156.165 398.5,128.831 399,101.5C 399.383,100.944 399.883,100.611 400.5,100.5 Z"/></g>
<g><path style="opacity:1" fill="#5c622d" d="M 400.5,187.5 C 400.5,191.167 400.5,194.833 400.5,198.5C 395.167,198.5 389.833,198.5 384.5,198.5C 383.522,198.189 382.855,197.522 382.5,196.5C 388.981,194.325 394.981,191.325 400.5,187.5 Z"/></g>
<g><path style="opacity:1" fill="#988046" d="M 384.5,198.5 C 389.833,198.5 395.167,198.5 400.5,198.5C 400.5,200.167 400.5,201.833 400.5,203.5C 396.12,202.707 391.787,201.707 387.5,200.5C 386.5,199.833 385.5,199.167 384.5,198.5 Z"/></g>
<g><path style="opacity:1" fill="#96943f" d="M 512.5,184.5 C 511.027,186.395 509.36,188.061 507.5,189.5C 500.734,192.728 494.067,196.228 487.5,200C 477.679,202.804 467.679,204.637 457.5,205.5C 442.485,205.642 427.485,205.309 412.5,204.5C 412.5,203.5 412.5,202.5 412.5,201.5C 413.648,200.105 414.648,200.272 415.5,202C 432.832,203.977 450.165,203.977 467.5,202C 472.878,199.885 478.545,198.885 484.5,199C 493.071,192.571 502.405,187.738 512.5,184.5 Z"/></g>
<g><path style="opacity:1" fill="#b53513" d="M 507.5,189.5 C 504.71,193.3 501.377,196.3 497.5,198.5C 494.412,198.377 491.745,199.377 489.5,201.5C 492.295,201.938 494.628,202.938 496.5,204.5C 496.167,204.5 495.833,204.5 495.5,204.5C 493.5,203.167 491.5,203.167 489.5,204.5C 487.421,204.971 485.421,205.637 483.5,206.5C 483.719,205.325 483.386,204.325 482.5,203.5C 479.616,204.209 476.949,205.209 474.5,206.5C 469.05,206.365 463.716,207.031 458.5,208.5C 443.5,208.5 428.5,208.5 413.5,208.5C 413.5,207.833 413.5,207.167 413.5,206.5C 428.343,206.829 443.01,206.496 457.5,205.5C 467.679,204.637 477.679,202.804 487.5,200C 494.067,196.228 500.734,192.728 507.5,189.5 Z"/></g>
<g><path style="opacity:1" fill="#ad7034" d="M 412.5,204.5 C 427.485,205.309 442.485,205.642 457.5,205.5C 443.01,206.496 428.343,206.829 413.5,206.5C 413.167,206.5 412.833,206.5 412.5,206.5C 412.5,205.833 412.5,205.167 412.5,204.5 Z"/></g>
<g><path style="opacity:1" fill="#fcfbfa" d="M 411.5,207.5 C 411.5,220.833 411.5,234.167 411.5,247.5C 422.833,247.5 434.167,247.5 445.5,247.5C 446.016,249.2 447.016,250.533 448.5,251.5C 452.685,248.581 457.185,247.915 462,249.5C 462.273,251.101 462.773,252.601 463.5,254C 462.949,255.398 462.616,256.732 462.5,258C 463.21,262.572 464.543,266.906 466.5,271C 476.224,272.697 479.224,268.864 475.5,259.5C 474.5,259.167 473.833,258.5 473.5,257.5C 470.874,256.551 468.208,256.551 465.5,257.5C 465.223,254.552 465.556,251.719 466.5,249C 471.985,248.713 477.318,248.879 482.5,249.5C 483.799,248.91 484.632,247.91 485,246.5C 486.544,249.264 487.711,249.097 488.5,246C 487.745,243.825 486.912,241.659 486,239.5C 485.333,229.167 485.333,218.833 486,208.5C 486.717,207.956 487.217,207.289 487.5,206.5C 487.833,206.5 488.167,206.5 488.5,206.5C 490.167,206.5 491.833,206.5 493.5,206.5C 493.667,229.502 493.5,252.502 493,275.5C 492.317,280.699 489.484,284.366 484.5,286.5C 482.995,283.869 482.329,284.203 482.5,287.5C 477.3,287.66 472.467,287.326 468,286.5C 450.863,287.173 433.697,287.84 416.5,288.5C 413.828,287.499 411.161,286.499 408.5,285.5C 406.985,283.453 406.151,281.119 406,278.5C 405.856,270.876 405.023,263.209 403.5,255.5C 405.585,253.164 405.751,250.831 404,248.5C 401.498,226.807 401.998,205.307 405.5,184C 404.667,180.516 404.501,177.016 405,173.5C 405.605,171.519 406.605,171.185 408,172.5C 408.287,174.891 408.787,177.224 409.5,179.5C 408.59,184.531 408.59,189.364 409.5,194C 408.81,196.961 407.81,199.794 406.5,202.5C 407.12,211.865 407.286,221.532 407,231.5C 408.044,232.623 408.71,233.956 409,235.5C 409.756,227.308 409.59,219.142 408.5,211C 408.858,208.968 409.692,207.134 411,205.5C 411.464,206.094 411.631,206.761 411.5,207.5 Z"/></g>
<g><path style="opacity:1" fill="#dd8684" d="M 489.5,204.5 C 489.167,205.167 488.833,205.833 488.5,206.5C 488.167,206.5 487.833,206.5 487.5,206.5C 486.504,206.414 485.671,206.748 485,207.5C 484.831,220.34 484.331,233.007 483.5,245.5C 483.5,232.5 483.5,219.5 483.5,206.5C 485.421,205.637 487.421,204.971 489.5,204.5 Z"/></g>
<g><path style="opacity:1" fill="#ca0e11" d="M 395.5,205.5 C 396.496,205.414 397.329,205.748 398,206.5C 397.841,229.522 398.675,252.189 400.5,274.5C 400.5,274.833 400.5,275.167 400.5,275.5C 400.171,280.513 402.171,284.18 406.5,286.5C 407.024,289.188 408.691,290.688 411.5,291C 434.831,291.5 458.164,291.667 481.5,291.5C 470.353,292.832 458.853,293.499 447,293.5C 435.5,293.333 424,293.167 412.5,293C 406.846,291.496 402.513,288.329 399.5,283.5C 398.423,279.358 397.423,275.191 396.5,271C 397.139,260.021 397.472,249.021 397.5,238C 397.455,227.01 396.788,216.176 395.5,205.5 Z"/></g>
<g><path style="opacity:1" fill="#febdbd" d="M 489.5,204.5 C 491.5,203.167 493.5,203.167 495.5,204.5C 495.831,228.006 495.498,251.339 494.5,274.5C 494.5,251.167 494.5,227.833 494.5,204.5C 492.833,204.5 491.167,204.5 489.5,204.5 Z"/></g>
<g><path style="opacity:1" fill="#d52f26" d="M 653.5,203.5 C 656.542,215.514 658.208,227.847 658.5,240.5C 655.263,228.53 653.596,216.197 653.5,203.5 Z"/></g>
<g><path style="opacity:1" fill="#d70605" d="M 483.5,206.5 C 482.815,218.735 482.148,231.068 481.5,243.5C 459.167,243.5 436.833,243.5 414.5,243.5C 414.5,232.167 414.5,220.833 414.5,209.5C 429.343,209.829 444.01,209.496 458.5,208.5C 463.716,207.031 469.05,206.365 474.5,206.5C 476.949,205.209 479.616,204.209 482.5,203.5C 483.386,204.325 483.719,205.325 483.5,206.5 Z"/></g>
<g><path style="opacity:1" fill="#a51d1c" d="M 412.5,206.5 C 412.833,206.5 413.167,206.5 413.5,206.5C 413.5,207.167 413.5,207.833 413.5,208.5C 413.5,220.5 413.5,232.5 413.5,244.5C 436.339,244.831 459.006,244.497 481.5,243.5C 482.148,231.068 482.815,218.735 483.5,206.5C 483.5,219.5 483.5,232.5 483.5,245.5C 459.833,245.5 436.167,245.5 412.5,245.5C 412.5,232.833 412.5,220.167 412.5,207.5C 412.5,207.167 412.5,206.833 412.5,206.5 Z"/></g>
<g><path style="opacity:1" fill="#c30e0d" d="M 413.5,208.5 C 428.5,208.5 443.5,208.5 458.5,208.5C 444.01,209.496 429.343,209.829 414.5,209.5C 414.5,220.833 414.5,232.167 414.5,243.5C 436.833,243.5 459.167,243.5 481.5,243.5C 459.006,244.497 436.339,244.831 413.5,244.5C 413.5,232.5 413.5,220.5 413.5,208.5 Z"/></g>
<g><path style="opacity:1" fill="#e50101" d="M 474.5,206.5 C 476.5,206.5 478.5,206.5 480.5,206.5C 480.5,218.167 480.5,229.833 480.5,241.5C 458.86,242.456 437.193,242.789 415.5,242.5C 415.5,231.833 415.5,221.167 415.5,210.5C 430.837,210.667 446.17,210.5 461.5,210C 466.133,209.504 470.467,208.337 474.5,206.5 Z"/></g>
<g><path style="opacity:1" fill="#c8362b" d="M 247.5,199.5 C 247.092,209.019 245.925,218.352 244,227.5C 243.333,241.833 243.333,256.167 244,270.5C 245.708,279.099 246.874,287.765 247.5,296.5C 245.821,289.322 244.321,281.989 243,274.5C 239.859,249.052 241.359,224.052 247.5,199.5 Z"/></g>
<g><path style="opacity:1" fill="#f3b2b1" d="M 411.5,207.5 C 411.833,207.5 412.167,207.5 412.5,207.5C 412.5,220.167 412.5,232.833 412.5,245.5C 436.167,245.5 459.833,245.5 483.5,245.5C 471.211,247.48 458.544,248.147 445.5,247.5C 434.167,247.5 422.833,247.5 411.5,247.5C 411.5,234.167 411.5,220.833 411.5,207.5 Z"/></g>
<g><path style="opacity:1" fill="#fcebe9" d="M 487.5,206.5 C 487.217,207.289 486.717,207.956 486,208.5C 485.333,218.833 485.333,229.167 486,239.5C 486.912,241.659 487.745,243.825 488.5,246C 487.711,249.097 486.544,249.264 485,246.5C 484.632,247.91 483.799,248.91 482.5,249.5C 477.318,248.879 471.985,248.713 466.5,249C 465.556,251.719 465.223,254.552 465.5,257.5C 468.208,256.551 470.874,256.551 473.5,257.5C 473.833,258.5 474.5,259.167 475.5,259.5C 479.224,268.864 476.224,272.697 466.5,271C 464.543,266.906 463.21,262.572 462.5,258C 462.616,256.732 462.949,255.398 463.5,254C 462.773,252.601 462.273,251.101 462,249.5C 457.185,247.915 452.685,248.581 448.5,251.5C 447.016,250.533 446.016,249.2 445.5,247.5C 458.544,248.147 471.211,247.48 483.5,245.5C 484.331,233.007 484.831,220.34 485,207.5C 485.671,206.748 486.504,206.414 487.5,206.5 Z"/></g>
<g><path style="opacity:1" fill="#f0b4ac" d="M 423.5,259.5 C 425.527,259.338 427.527,259.505 429.5,260C 430.056,260.383 430.389,260.883 430.5,261.5C 427.833,261.5 425.167,261.5 422.5,261.5C 422.328,260.508 422.662,259.842 423.5,259.5 Z"/></g>
<g><path style="opacity:1" fill="#fdeae8" d="M 422.5,261.5 C 422.5,264.5 422.5,267.5 422.5,270.5C 425.167,270.5 427.833,270.5 430.5,270.5C 430.5,267.5 430.5,264.5 430.5,261.5C 430.389,260.883 430.056,260.383 429.5,260C 427.527,259.505 425.527,259.338 423.5,259.5C 423.611,258.883 423.944,258.383 424.5,258C 426.5,257.333 428.5,257.333 430.5,258C 431.763,260.386 433.597,262.219 436,263.5C 438.08,260.645 437.914,257.979 435.5,255.5C 435.833,255.167 436.167,254.833 436.5,254.5C 443.012,254.449 449.512,254.782 456,255.5C 457.576,261.388 457.909,267.388 457,273.5C 456.308,274.025 455.808,274.692 455.5,275.5C 450.5,276.833 445.5,276.833 440.5,275.5C 438.317,273.293 436.984,270.626 436.5,267.5C 434.728,268.27 433.728,269.603 433.5,271.5C 435.319,274.215 436.319,277.215 436.5,280.5C 432.024,280.2 430.69,278.033 432.5,274C 430.83,271.69 428.496,271.19 425.5,272.5C 422.839,272.252 420.506,271.252 418.5,269.5C 419.543,266.545 420.877,263.878 422.5,261.5 Z"/></g>
<g><path style="opacity:1" fill="#d87e7e" d="M 454.5,257.5 C 449.737,257.226 445.07,257.559 440.5,258.5C 442.397,257.195 444.731,256.529 447.5,256.5C 450.025,256.503 452.359,256.837 454.5,257.5 Z"/></g>
<g><path style="opacity:1" fill="#af4140" d="M 466.5,260.5 C 469.119,260.232 471.619,260.565 474,261.5C 474.497,264.146 474.664,266.813 474.5,269.5C 471.833,269.5 469.167,269.5 466.5,269.5C 466.5,266.5 466.5,263.5 466.5,260.5 Z"/></g>
<g><path style="opacity:1" fill="#c61113" d="M 467.5,262.5 C 469.5,262.5 471.5,262.5 473.5,262.5C 474.5,267.5 472.5,269.5 467.5,268.5C 467.5,266.5 467.5,264.5 467.5,262.5 Z"/></g>
<g><path style="opacity:1" fill="#b7514d" d="M 422.5,261.5 C 425.167,261.5 427.833,261.5 430.5,261.5C 430.5,264.5 430.5,267.5 430.5,270.5C 427.833,270.5 425.167,270.5 422.5,270.5C 422.5,267.5 422.5,264.5 422.5,261.5 Z"/></g>
<g><path style="opacity:1" fill="#c71013" d="M 425.5,262.5 C 426.833,262.5 428.167,262.5 429.5,262.5C 430.5,267.5 428.5,269.5 423.5,268.5C 423.253,266.142 423.919,264.142 425.5,262.5 Z"/></g>
<g><path style="opacity:1" fill="#b53535" d="M 454.5,257.5 C 455.651,262.65 455.817,267.984 455,273.5C 452.757,274.137 450.424,274.47 448,274.5C 445.375,274.419 443.041,273.752 441,272.5C 440.501,267.845 440.334,263.179 440.5,258.5C 445.07,257.559 449.737,257.226 454.5,257.5 Z"/></g>
<g><path style="opacity:1" fill="#d7070a" d="M 443.5,258.5 C 446.898,258.18 450.232,258.513 453.5,259.5C 454.809,263.698 454.809,267.864 453.5,272C 449.909,272.789 446.409,272.622 443,271.5C 442.232,267.08 442.398,262.747 443.5,258.5 Z"/></g>
<g><path style="opacity:1" fill="#c04440" d="M 400.5,275.5 C 402.228,279.287 404.228,282.954 406.5,286.5C 402.171,284.18 400.171,280.513 400.5,275.5 Z"/></g>
<g><path style="opacity:1" fill="#be2c29" d="M 495.5,204.5 C 495.833,204.5 496.167,204.5 496.5,204.5C 497.663,228.997 497.83,253.663 497,278.5C 496.907,281.007 496.074,283.174 494.5,285C 491.632,285.861 489.298,287.528 487.5,290C 485.655,291.128 483.655,291.628 481.5,291.5C 481.5,291.167 481.5,290.833 481.5,290.5C 481.5,290.167 481.5,289.833 481.5,289.5C 489.749,287.916 494.082,282.916 494.5,274.5C 495.498,251.339 495.831,228.006 495.5,204.5 Z"/></g>
<g><path style="opacity:1" fill="#fec7c6" d="M 410.5,288.5 C 434.141,289.46 457.807,289.793 481.5,289.5C 481.5,289.833 481.5,290.167 481.5,290.5C 458.498,290.667 435.498,290.5 412.5,290C 411.584,289.722 410.918,289.222 410.5,288.5 Z"/></g>
<g><path style="opacity:1" fill="#bf5456" d="M 406.5,286.5 C 407.605,287.6 408.938,288.267 410.5,288.5C 410.918,289.222 411.584,289.722 412.5,290C 435.498,290.5 458.498,290.667 481.5,290.5C 481.5,290.833 481.5,291.167 481.5,291.5C 458.164,291.667 434.831,291.5 411.5,291C 408.691,290.688 407.024,289.188 406.5,286.5 Z"/></g>
<g><path style="opacity:1" fill="#cc2620" d="M 247.5,299.5 C 249.79,303.223 251.79,307.223 253.5,311.5C 254.41,315.888 255.41,320.222 256.5,324.5C 252.942,316.503 249.942,308.17 247.5,299.5 Z"/></g>
<g><path style="opacity:1" fill="#cd271e" d="M 654.5,289.5 C 652.032,299.567 649.366,309.567 646.5,319.5C 645.359,322.254 644.025,324.921 642.5,327.5C 646.225,316.03 649.392,304.363 652,292.5C 652.377,291.058 653.21,290.058 654.5,289.5 Z"/></g>
<g><path style="opacity:1" fill="#faf9f9" d="M 646.5,319.5 C 650.833,319.5 655.167,319.5 659.5,319.5C 659.5,326.167 659.5,332.833 659.5,339.5C 666.167,339.5 672.833,339.5 679.5,339.5C 679.5,346.167 679.5,352.833 679.5,359.5C 686.167,359.5 692.833,359.5 699.5,359.5C 699.5,366.167 699.5,372.833 699.5,379.5C 706.167,379.5 712.833,379.5 719.5,379.5C 719.5,386.167 719.5,392.833 719.5,399.5C 726.167,399.5 732.833,399.5 739.5,399.5C 739.5,406.167 739.5,412.833 739.5,419.5C 746.167,419.5 752.833,419.5 759.5,419.5C 759.5,426.167 759.5,432.833 759.5,439.5C 766.167,439.5 772.833,439.5 779.5,439.5C 779.5,446.167 779.5,452.833 779.5,459.5C 786.167,459.5 792.833,459.5 799.5,459.5C 799.5,466.167 799.5,472.833 799.5,479.5C 806.167,479.5 812.833,479.5 819.5,479.5C 819.5,485.167 819.5,490.833 819.5,496.5C 799.5,496.5 779.5,496.5 759.5,496.5C 759.5,490.833 759.5,485.167 759.5,479.5C 752.833,479.5 746.167,479.5 739.5,479.5C 739.5,472.833 739.5,466.167 739.5,459.5C 732.833,459.5 726.167,459.5 719.5,459.5C 719.5,452.833 719.5,446.167 719.5,439.5C 712.833,439.5 706.167,439.5 699.5,439.5C 699.5,432.833 699.5,426.167 699.5,419.5C 692.833,419.5 686.167,419.5 679.5,419.5C 679.5,412.833 679.5,406.167 679.5,399.5C 672.833,399.5 666.167,399.5 659.5,399.5C 659.5,392.833 659.5,386.167 659.5,379.5C 652.833,379.5 646.167,379.5 639.5,379.5C 639.5,372.833 639.5,366.167 639.5,359.5C 635.298,359.817 631.298,359.483 627.5,358.5C 633.301,348.564 638.301,338.231 642.5,327.5C 644.025,324.921 645.359,322.254 646.5,319.5 Z"/></g>
<g><path style="opacity:1" fill="#a82628" d="M 516.5,321.5 C 517.49,327.645 517.823,333.978 517.5,340.5C 519.5,340.5 521.5,340.5 523.5,340.5C 521.365,342.071 519.032,343.404 516.5,344.5C 516.5,336.833 516.5,329.167 516.5,321.5 Z"/></g>
<g><path style="opacity:1" fill="#bd2923" d="M 547.5,350.5 C 541.886,341.949 533.886,338.616 523.5,340.5C 523.414,339.504 523.748,338.671 524.5,338C 531.518,337.42 538.185,338.753 544.5,342C 546.497,344.492 547.497,347.325 547.5,350.5 Z"/></g>
<g><path style="opacity:1" fill="#c2221d" d="M 439.5,344.5 C 439.167,344.5 438.833,344.5 438.5,344.5C 438.167,344.5 437.833,344.5 437.5,344.5C 436.653,343.034 435.32,342.2 433.5,342C 425.27,339.756 417.27,340.423 409.5,344C 407.785,344.777 406.785,346.11 406.5,348C 407.206,351.285 408.206,354.452 409.5,357.5C 408.504,357.586 407.671,357.252 407,356.5C 402.696,349.698 403.863,344.198 410.5,340C 419.803,336.271 428.803,336.771 437.5,341.5C 438.193,342.518 438.859,343.518 439.5,344.5 Z"/></g>
<g><path style="opacity:1" fill="#fcabae" d="M 516.5,319.5 C 516.5,320.167 516.5,320.833 516.5,321.5C 516.5,329.167 516.5,336.833 516.5,344.5C 516.167,344.5 515.833,344.5 515.5,344.5C 515.5,336.5 515.5,328.5 515.5,320.5C 511.5,320.5 507.5,320.5 503.5,320.5C 503.5,346.833 503.5,373.167 503.5,399.5C 507.5,399.5 511.5,399.5 515.5,399.5C 515.171,385.656 515.504,371.99 516.5,358.5C 516.5,372.5 516.5,386.5 516.5,400.5C 511.833,400.5 507.167,400.5 502.5,400.5C 502.5,373.5 502.5,346.5 502.5,319.5C 507.167,319.5 511.833,319.5 516.5,319.5 Z"/></g>
<g><path style="opacity:1" fill="#d1251f" d="M 256.5,324.5 C 261.207,334.878 266.873,345.212 273.5,355.5C 274.452,357.045 274.785,358.712 274.5,360.5C 266.932,349.365 260.932,337.365 256.5,324.5 Z"/></g>
<g><path style="opacity:1" fill="#fed5cf" d="M 437.5,344.5 C 426.831,340.537 417.165,342.037 408.5,349C 409.191,350.067 409.691,351.234 410,352.5C 410.561,353.022 411.228,353.355 412,353.5C 416.892,351.56 421.725,351.227 426.5,352.5C 422.511,352.116 418.845,352.783 415.5,354.5C 413.5,355.5 411.5,356.5 409.5,357.5C 408.206,354.452 407.206,351.285 406.5,348C 406.785,346.11 407.785,344.777 409.5,344C 417.27,340.423 425.27,339.756 433.5,342C 435.32,342.2 436.653,343.034 437.5,344.5 Z"/></g>
<g><path style="opacity:1" fill="#be2f2b" d="M 369.5,379.5 C 369.645,382.474 370.978,384.641 373.5,386C 379.838,387.512 385.504,386.346 390.5,382.5C 391.107,382.624 391.44,382.957 391.5,383.5C 385.735,388.552 379.068,389.885 371.5,387.5C 366.714,379.537 365.214,370.87 367,361.5C 368.386,358.709 370.22,356.209 372.5,354C 375.555,353.366 378.555,353.532 381.5,354.5C 383.835,356.335 386.001,358.335 388,360.5C 399.076,355.413 399.242,350.08 388.5,344.5C 387.942,343.21 386.942,342.377 385.5,342C 380.238,340.561 374.904,340.228 369.5,341C 367.68,341.2 366.347,342.034 365.5,343.5C 360.094,345.241 356.761,348.907 355.5,354.5C 354.073,356.148 353.24,358.148 353,360.5C 352.5,366.825 352.334,373.158 352.5,379.5C 351.029,370.889 351.362,362.222 353.5,353.5C 356.299,343.225 363.299,338.559 374.5,339.5C 379.538,339.627 384.538,340.127 389.5,341C 394.046,343.578 397.046,347.412 398.5,352.5C 396.225,358.788 391.892,362.454 385.5,363.5C 379.44,353.924 373.607,354.257 368,364.5C 367.333,368.833 367.333,373.167 368,377.5C 368.278,378.416 368.778,379.082 369.5,379.5 Z"/></g>
<g><path style="opacity:1" fill="#f9c2bd" d="M 388.5,344.5 C 380.922,342.335 373.256,342.001 365.5,343.5C 366.347,342.034 367.68,341.2 369.5,341C 374.904,340.228 380.238,340.561 385.5,342C 386.942,342.377 387.942,343.21 388.5,344.5 Z"/></g>
<g><path style="opacity:1" fill="#f8bfc1" d="M 365.5,343.5 C 364.32,345.014 363.32,346.681 362.5,348.5C 360.276,350.69 357.942,352.69 355.5,354.5C 356.761,348.907 360.094,345.241 365.5,343.5 Z"/></g>
<g><path style="opacity:1" fill="#fcdbd6" d="M 465.5,340.5 C 473.603,340.173 481.603,340.839 489.5,342.5C 490.315,343.837 491.482,344.837 493,345.5C 493.458,348.558 493.124,351.558 492,354.5C 491.184,355.823 490.017,356.489 488.5,356.5C 487.391,356.443 486.391,356.11 485.5,355.5C 480.595,352.769 475.262,351.936 469.5,353C 467.556,355.153 467.056,357.653 468,360.5C 468.816,361.823 469.983,362.489 471.5,362.5C 474.452,364.41 477.786,365.41 481.5,365.5C 483.629,366.203 485.629,367.203 487.5,368.5C 480.455,367.155 473.455,365.321 466.5,363C 463.1,356.931 464.433,352.097 470.5,348.5C 474.111,349.262 477.778,349.762 481.5,350C 487.643,355.744 490.477,354.578 490,346.5C 487.635,345.711 485.468,344.544 483.5,343C 476.472,342.325 469.472,342.492 462.5,343.5C 463.694,342.728 464.694,341.728 465.5,340.5 Z"/></g>
<g><path style="opacity:1" fill="#bf2c28" d="M 516.5,319.5 C 511.833,319.5 507.167,319.5 502.5,319.5C 502.5,346.5 502.5,373.5 502.5,400.5C 500.9,372.826 499.9,347.492 499.5,324.5C 498.256,321.717 498.922,319.217 501.5,317C 506.202,316.172 510.869,316.338 515.5,317.5C 515.863,318.183 516.196,318.85 516.5,319.5 Z"/></g>
<g><path style="opacity:1" fill="#b1403e" d="M 426.5,352.5 C 426.833,352.5 427.167,352.5 427.5,352.5C 428.145,353.812 429.145,354.812 430.5,355.5C 431.474,357.743 431.808,360.076 431.5,362.5C 427.821,362.724 424.154,363.058 420.5,363.5C 423.171,361.882 426.171,361.215 429.5,361.5C 429.739,359.533 429.406,357.699 428.5,356C 424.3,354.633 419.967,354.133 415.5,354.5C 418.845,352.783 422.511,352.116 426.5,352.5 Z"/></g>
<g><path style="opacity:1" fill="#c63a36" d="M 489.5,342.5 C 494.332,342.773 496.332,345.44 495.5,350.5C 495.448,354.164 493.615,356.497 490,357.5C 489.235,357.43 488.735,357.097 488.5,356.5C 490.017,356.489 491.184,355.823 492,354.5C 493.124,351.558 493.458,348.558 493,345.5C 491.482,344.837 490.315,343.837 489.5,342.5 Z"/></g>
<g><path style="opacity:1" fill="#fcd6d5" d="M 381.5,354.5 C 378.555,353.532 375.555,353.366 372.5,354C 370.22,356.209 368.386,358.709 367,361.5C 365.214,370.87 366.714,379.537 371.5,387.5C 370.504,387.586 369.671,387.252 369,386.5C 367.472,383.583 366.139,380.583 365,377.5C 364.773,371.296 364.273,365.129 363.5,359C 364.01,357.174 364.844,357.007 366,358.5C 367.044,357.377 367.71,356.044 368,354.5C 371.967,352.614 376.134,352.114 380.5,353C 381.056,353.383 381.389,353.883 381.5,354.5 Z"/></g>
<g><path style="opacity:1" fill="#cf1513" d="M 415.5,354.5 C 419.967,354.133 424.3,354.633 428.5,356C 429.406,357.699 429.739,359.533 429.5,361.5C 426.171,361.215 423.171,361.882 420.5,363.5C 416.25,364.627 412.25,366.293 408.5,368.5C 406.041,368.31 404.374,369.31 403.5,371.5C 403.5,369.833 403.5,368.167 403.5,366.5C 408.411,365.371 413.078,363.704 417.5,361.5C 417.5,360.5 417.5,359.5 417.5,358.5C 414.615,358.806 411.948,358.473 409.5,357.5C 411.5,356.5 413.5,355.5 415.5,354.5 Z"/></g>
<g><path style="opacity:1" fill="#a92a2a" d="M 485.5,355.5 C 480.61,353.93 475.61,353.43 470.5,354C 469.041,357.071 469.374,359.904 471.5,362.5C 469.983,362.489 468.816,361.823 468,360.5C 467.056,357.653 467.556,355.153 469.5,353C 475.262,351.936 480.595,352.769 485.5,355.5 Z"/></g>
<g><path style="opacity:1" fill="#e8858a" d="M 454.5,351.5 C 454.337,356.547 454.671,361.547 455.5,366.5C 454.778,366.082 454.278,365.416 454,364.5C 453.186,359.98 453.353,355.646 454.5,351.5 Z"/></g>
<g><path style="opacity:1" fill="#d80a0d" d="M 495.5,350.5 C 495.54,353.881 495.207,357.214 494.5,360.5C 487.762,360.31 486.762,362.644 491.5,367.5C 488.448,365.822 485.115,365.155 481.5,365.5C 481.389,364.883 481.056,364.383 480.5,364C 477.522,363.304 474.522,362.804 471.5,362.5C 469.374,359.904 469.041,357.071 470.5,354C 475.61,353.43 480.61,353.93 485.5,355.5C 486.391,356.11 487.391,356.443 488.5,356.5C 488.735,357.097 489.235,357.43 490,357.5C 493.615,356.497 495.448,354.164 495.5,350.5 Z"/></g>
<g><path style="opacity:1" fill="#b62121" d="M 439.5,344.5 C 440.167,344.5 440.833,344.5 441.5,344.5C 442.164,346.487 443.331,348.154 445,349.5C 445.333,351.167 445.667,352.833 446,354.5C 446.828,369.672 446.661,384.672 445.5,399.5C 445.829,384.99 445.496,370.657 444.5,356.5C 444.337,351.816 442.67,347.816 439.5,344.5 Z"/></g>
<g><path style="opacity:1" fill="#c14f53" d="M 471.5,362.5 C 474.522,362.804 477.522,363.304 480.5,364C 481.056,364.383 481.389,364.883 481.5,365.5C 477.786,365.41 474.452,364.41 471.5,362.5 Z"/></g>
<g><path style="opacity:1" fill="#fce3e0" d="M 427.5,352.5 C 429.17,352.751 430.67,353.418 432,354.5C 432.76,358.225 432.593,361.892 431.5,365.5C 433.37,370.261 434.037,375.261 433.5,380.5C 434.552,380.351 435.552,380.517 436.5,381C 435.458,384.715 432.792,387.381 428.5,389C 425.185,389.941 421.852,390.774 418.5,391.5C 412.906,390.402 411.073,387.068 413,381.5C 413.417,380.244 414.25,379.577 415.5,379.5C 414.944,387.475 418.61,390.308 426.5,388C 428.078,386.906 429.745,386.072 431.5,385.5C 432.485,381.366 432.818,377.032 432.5,372.5C 429.15,372.335 425.817,372.502 422.5,373C 421.584,373.278 420.918,373.778 420.5,374.5C 419.035,375.737 417.368,376.737 415.5,377.5C 416.099,374.832 417.766,372.998 420.5,372C 423.119,371.849 425.453,371.015 427.5,369.5C 428.736,370.246 430.07,370.579 431.5,370.5C 431.438,366.669 429.438,364.669 425.5,364.5C 418.087,365.565 411.421,368.232 405.5,372.5C 406.147,370.859 407.147,369.526 408.5,368.5C 412.25,366.293 416.25,364.627 420.5,363.5C 424.154,363.058 427.821,362.724 431.5,362.5C 431.808,360.076 431.474,357.743 430.5,355.5C 429.145,354.812 428.145,353.812 427.5,352.5 Z"/></g>
<g><path style="opacity:1" fill="#da0809" d="M 495.5,350.5 C 496.332,345.44 494.332,342.773 489.5,342.5C 489.119,341.069 488.119,340.236 486.5,340C 481.688,339.294 476.854,338.794 472,338.5C 469.39,338.533 467.223,339.2 465.5,340.5C 464.127,340.343 462.793,340.51 461.5,341C 459.365,341.876 458.031,343.376 457.5,345.5C 455.975,347.216 454.975,349.216 454.5,351.5C 453.353,355.646 453.186,359.98 454,364.5C 454.278,365.416 454.778,366.082 455.5,366.5C 455.128,369.923 456.461,372.423 459.5,374C 466.264,377.29 473.264,379.79 480.5,381.5C 480.5,383.5 480.5,385.5 480.5,387.5C 477.15,387.665 473.817,387.498 470.5,387C 465.877,385.939 461.544,384.439 457.5,382.5C 456.624,382.369 455.957,382.702 455.5,383.5C 454.16,387.19 452.826,390.857 451.5,394.5C 451.5,395.167 451.5,395.833 451.5,396.5C 450.417,396.461 449.417,396.127 448.5,395.5C 447.008,403.211 442.675,405.545 435.5,402.5C 438.187,402.664 440.854,402.497 443.5,402C 444.056,401.617 444.389,401.117 444.5,400.5C 445.167,400.5 445.5,400.167 445.5,399.5C 446.661,384.672 446.828,369.672 446,354.5C 445.667,352.833 445.333,351.167 445,349.5C 443.331,348.154 442.164,346.487 441.5,344.5C 443.567,345.263 445.234,346.596 446.5,348.5C 447.223,351.07 448.39,353.403 450,355.5C 453.178,342.816 461.511,336.483 475,336.5C 480.503,337.766 486.003,337.766 491.5,336.5C 491.529,339.656 493.196,341.322 496.5,341.5C 496.833,343 497.167,344.5 497.5,346C 497.431,347.986 496.765,349.486 495.5,350.5 Z"/></g>
<g><path style="opacity:1" fill="#ba3c36" d="M 465.5,340.5 C 464.694,341.728 463.694,342.728 462.5,343.5C 460.716,343.893 459.05,344.559 457.5,345.5C 458.031,343.376 459.365,341.876 461.5,341C 462.793,340.51 464.127,340.343 465.5,340.5 Z"/></g>
<g><path style="opacity:1" fill="#b82929" d="M 489.5,342.5 C 481.603,340.839 473.603,340.173 465.5,340.5C 467.223,339.2 469.39,338.533 472,338.5C 476.854,338.794 481.688,339.294 486.5,340C 488.119,340.236 489.119,341.069 489.5,342.5 Z"/></g>
<g><path style="opacity:1" fill="#b91c1d" d="M 532.5,359.5 C 528.913,356.168 525.246,355.835 521.5,358.5C 520.504,358.414 519.671,358.748 519,359.5C 518.667,372.833 518.333,386.167 518,399.5C 517.626,400.416 517.126,401.25 516.5,402C 512.167,402.667 507.833,402.667 503.5,402C 502.944,401.617 502.611,401.117 502.5,400.5C 507.167,400.5 511.833,400.5 516.5,400.5C 516.5,386.5 516.5,372.5 516.5,358.5C 517.436,357.026 518.77,356.026 520.5,355.5C 523.502,354.357 526.502,354.357 529.5,355.5C 531.288,356.283 532.288,357.616 532.5,359.5 Z"/></g>
<g><path style="opacity:1" fill="#fafaf9" d="M 487.5,368.5 C 488.5,368.833 489.167,369.5 489.5,370.5C 489.5,371.5 489.5,372.5 489.5,373.5C 490.5,373.5 491.5,373.5 492.5,373.5C 492.854,377.637 492.354,381.637 491,385.5C 490.469,382.195 488.802,379.195 486,376.5C 484.688,378.658 483.022,378.991 481,377.5C 480.383,376.551 480.549,375.718 481.5,375C 478.447,374.821 475.447,374.321 472.5,373.5C 474.149,372.852 475.482,371.852 476.5,370.5C 472.362,369.925 468.362,369.925 464.5,370.5C 462.618,369.469 460.618,368.635 458.5,368C 457.101,364.465 456.101,360.798 455.5,357C 456.017,353.291 457.017,349.791 458.5,346.5C 460.619,346.532 461.952,345.532 462.5,343.5C 469.472,342.492 476.472,342.325 483.5,343C 485.468,344.544 487.635,345.711 490,346.5C 490.477,354.578 487.643,355.744 481.5,350C 477.778,349.762 474.111,349.262 470.5,348.5C 464.433,352.097 463.1,356.931 466.5,363C 473.455,365.321 480.455,367.155 487.5,368.5 Z"/></g>
<g><path style="opacity:1" fill="#b62f2d" d="M 408.5,368.5 C 407.147,369.526 406.147,370.859 405.5,372.5C 403.39,373.453 402.223,375.119 402,377.5C 401.501,381.152 401.335,384.818 401.5,388.5C 400.515,384.366 400.182,380.032 400.5,375.5C 401.5,374.167 402.5,372.833 403.5,371.5C 404.374,369.31 406.041,368.31 408.5,368.5 Z"/></g>
<g><path style="opacity:1" fill="#b92f2a" d="M 455.5,366.5 C 457.303,368.481 458.97,370.648 460.5,373C 466.077,374.954 471.744,376.621 477.5,378C 483.211,380.881 483.878,384.548 479.5,389C 472.268,390.441 465.601,389.274 459.5,385.5C 458.833,384.5 458.167,383.5 457.5,382.5C 461.544,384.439 465.877,385.939 470.5,387C 473.817,387.498 477.15,387.665 480.5,387.5C 480.5,385.5 480.5,383.5 480.5,381.5C 473.264,379.79 466.264,377.29 459.5,374C 456.461,372.423 455.128,369.923 455.5,366.5 Z"/></g>
<g><path style="opacity:1" fill="#fee3e2" d="M 515.5,344.5 C 515.833,344.5 516.167,344.5 516.5,344.5C 519.032,343.404 521.365,342.071 523.5,340.5C 533.886,338.616 541.886,341.949 547.5,350.5C 547.5,351.167 547.5,351.833 547.5,352.5C 548.437,368.138 548.771,383.805 548.5,399.5C 544.5,399.5 540.5,399.5 536.5,399.5C 536.828,387.655 536.495,375.988 535.5,364.5C 534.537,354.147 529.537,351.147 520.5,355.5C 518.77,356.026 517.436,357.026 516.5,358.5C 515.504,371.99 515.171,385.656 515.5,399.5C 511.5,399.5 507.5,399.5 503.5,399.5C 503.5,373.167 503.5,346.833 503.5,320.5C 507.5,320.5 511.5,320.5 515.5,320.5C 515.5,328.5 515.5,336.5 515.5,344.5 Z"/></g>
<g><path style="opacity:1" fill="#fcfbfa" d="M 523.5,342.5 C 533.939,341.099 541.439,345.099 546,354.5C 547.413,369.116 547.913,383.783 547.5,398.5C 544.167,398.5 540.833,398.5 537.5,398.5C 537.371,384.569 537.371,370.735 537.5,357C 532.862,352.399 527.196,350.566 520.5,351.5C 520.338,349.473 520.505,347.473 521,345.5C 522.417,344.922 523.25,343.922 523.5,342.5 Z"/></g>
<g><path style="opacity:1" fill="#fbfbfb" d="M 515.5,344.5 C 516.156,347.667 516.489,350.667 516.5,353.5C 514.757,355.73 513.757,358.23 513.5,361C 514.431,373.478 514.764,385.978 514.5,398.5C 511.223,398.784 508.057,398.451 505,397.5C 504.333,372.833 504.333,348.167 505,323.5C 507.725,321.242 510.725,320.909 514,322.5C 514.171,330.011 514.671,337.345 515.5,344.5 Z"/></g>
<g><path style="opacity:1" fill="#d2080c" d="M 502.5,400.5 C 502.611,401.117 502.944,401.617 503.5,402C 507.833,402.667 512.167,402.667 516.5,402C 517.126,401.25 517.626,400.416 518,399.5C 518.333,386.167 518.667,372.833 519,359.5C 519.671,358.748 520.504,358.414 521.5,358.5C 521.013,359.473 520.513,360.473 520,361.5C 519.965,375.261 519.298,388.927 518,402.5C 517.5,403 517,403.5 516.5,404C 511.382,404.888 506.382,404.555 501.5,403C 501,402.5 500.5,402 500,401.5C 499.667,397.167 499.333,392.833 499,388.5C 497.269,390.862 496.435,393.529 496.5,396.5C 495.448,396.351 494.448,396.517 493.5,397C 491.491,401.234 488.157,403.9 483.5,405C 477.143,405.707 470.81,405.54 464.5,404.5C 461.725,403.754 459.392,402.421 457.5,400.5C 465.386,402.386 473.386,402.886 481.5,402C 496.043,397.279 501.043,387.446 496.5,372.5C 497.232,373.808 498.066,375.142 499,376.5C 499.5,359.17 499.667,341.837 499.5,324.5C 499.9,347.492 500.9,372.826 502.5,400.5 Z"/></g>
<g><path style="opacity:1" fill="#b83e40" d="M 535.5,364.5 C 535.5,375.833 535.5,387.167 535.5,398.5C 534.669,386.34 534.169,374.007 534,361.5C 533.722,360.584 533.222,359.918 532.5,359.5C 532.288,357.616 531.288,356.283 529.5,355.5C 526.502,354.357 523.502,354.357 520.5,355.5C 529.537,351.147 534.537,354.147 535.5,364.5 Z"/></g>
<g><path style="opacity:1" fill="#eea09f" d="M 547.5,352.5 C 548.268,353.263 548.768,354.263 549,355.5C 549.5,370.496 549.667,385.496 549.5,400.5C 544.833,400.5 540.167,400.5 535.5,400.5C 535.5,399.833 535.5,399.167 535.5,398.5C 535.5,387.167 535.5,375.833 535.5,364.5C 536.495,375.988 536.828,387.655 536.5,399.5C 540.5,399.5 544.5,399.5 548.5,399.5C 548.771,383.805 548.437,368.138 547.5,352.5 Z"/></g>
<g><path style="opacity:1" fill="#c61512" d="M 353.5,353.5 C 351.362,362.222 351.029,370.889 352.5,379.5C 353.49,382.743 354.49,386.076 355.5,389.5C 356.168,392.5 357.502,395.167 359.5,397.5C 358.193,396.847 356.86,396.18 355.5,395.5C 354.205,391.72 352.705,388.053 351,384.5C 350.333,375.5 350.333,366.5 351,357.5C 351.2,355.68 352.034,354.347 353.5,353.5 Z"/></g>
<g><path style="opacity:1" fill="#fbf7f5" d="M 388.5,344.5 C 399.242,350.08 399.076,355.413 388,360.5C 386.001,358.335 383.835,356.335 381.5,354.5C 381.389,353.883 381.056,353.383 380.5,353C 376.134,352.114 371.967,352.614 368,354.5C 367.71,356.044 367.044,357.377 366,358.5C 364.844,357.007 364.01,357.174 363.5,359C 364.273,365.129 364.773,371.296 365,377.5C 366.139,380.583 367.472,383.583 369,386.5C 369.671,387.252 370.504,387.586 371.5,387.5C 379.068,389.885 385.735,388.552 391.5,383.5C 393.048,383.821 393.715,384.821 393.5,386.5C 394.051,389.807 394.384,393.14 394.5,396.5C 388.507,397.827 382.507,399.161 376.5,400.5C 370.253,400.471 365.753,397.805 363,392.5C 362.667,392.833 362.333,393.167 362,393.5C 361,391.167 360,388.833 359,386.5C 358.333,387.833 357.667,387.833 357,386.5C 354.269,375.976 353.769,365.309 355.5,354.5C 357.942,352.69 360.276,350.69 362.5,348.5C 363.32,346.681 364.32,345.014 365.5,343.5C 373.256,342.001 380.922,342.335 388.5,344.5 Z"/></g>
<g><path style="opacity:1" fill="#faf9f8" d="M 437.5,344.5 C 437.833,344.5 438.167,344.5 438.5,344.5C 440.144,348.719 441.644,353.053 443,357.5C 443.5,371.163 443.667,384.829 443.5,398.5C 439.177,398.802 435.01,398.135 431,396.5C 421.866,401.311 413.866,399.978 407,392.5C 406.902,390.381 406.069,388.714 404.5,387.5C 403.019,382.284 403.353,377.284 405.5,372.5C 411.421,368.232 418.087,365.565 425.5,364.5C 429.438,364.669 431.438,366.669 431.5,370.5C 430.07,370.579 428.736,370.246 427.5,369.5C 425.453,371.015 423.119,371.849 420.5,372C 417.766,372.998 416.099,374.832 415.5,377.5C 415.5,378.167 415.5,378.833 415.5,379.5C 414.25,379.577 413.417,380.244 413,381.5C 411.073,387.068 412.906,390.402 418.5,391.5C 421.852,390.774 425.185,389.941 428.5,389C 432.792,387.381 435.458,384.715 436.5,381C 435.552,380.517 434.552,380.351 433.5,380.5C 434.037,375.261 433.37,370.261 431.5,365.5C 432.593,361.892 432.76,358.225 432,354.5C 430.67,353.418 429.17,352.751 427.5,352.5C 427.167,352.5 426.833,352.5 426.5,352.5C 421.725,351.227 416.892,351.56 412,353.5C 411.228,353.355 410.561,353.022 410,352.5C 409.691,351.234 409.191,350.067 408.5,349C 417.165,342.037 426.831,340.537 437.5,344.5 Z"/></g>
<g><path style="opacity:1" fill="#cf0b0e" d="M 532.5,359.5 C 533.222,359.918 533.722,360.584 534,361.5C 534.169,374.007 534.669,386.34 535.5,398.5C 535.5,399.167 535.5,399.833 535.5,400.5C 539.715,402.436 544.381,403.103 549.5,402.5C 545.031,403.807 540.365,404.307 535.5,404C 534.167,402 532.5,400.333 530.5,399C 531.227,397.601 531.727,396.101 532,394.5C 532.5,382.838 532.667,371.171 532.5,359.5 Z"/></g>
<g><path style="opacity:1" fill="#b1181a" d="M 547.5,350.5 C 549.247,351.981 550.414,353.981 551,356.5C 551.667,370.833 551.667,385.167 551,399.5C 550.487,400.527 549.987,401.527 549.5,402.5C 544.381,403.103 539.715,402.436 535.5,400.5C 540.167,400.5 544.833,400.5 549.5,400.5C 549.667,385.496 549.5,370.496 549,355.5C 548.768,354.263 548.268,353.263 547.5,352.5C 547.5,351.833 547.5,351.167 547.5,350.5 Z"/></g>
<g><path style="opacity:1" fill="#fdd2ce" d="M 355.5,354.5 C 353.769,365.309 354.269,375.976 357,386.5C 357.667,387.833 358.333,387.833 359,386.5C 360,388.833 361,391.167 362,393.5C 362.333,393.167 362.667,392.833 363,392.5C 365.753,397.805 370.253,400.471 376.5,400.5C 382.507,399.161 388.507,397.827 394.5,396.5C 394.167,397.167 393.833,397.833 393.5,398.5C 383.796,402.339 374.129,402.339 364.5,398.5C 361.23,395.713 358.23,392.713 355.5,389.5C 354.49,386.076 353.49,382.743 352.5,379.5C 352.334,373.158 352.5,366.825 353,360.5C 353.24,358.148 354.073,356.148 355.5,354.5 Z"/></g>
<g><path style="opacity:1" fill="#f09593" d="M 444.5,356.5 C 445.496,370.657 445.829,384.99 445.5,399.5C 445.5,400.167 445.167,400.5 444.5,400.5C 440.298,400.817 436.298,400.483 432.5,399.5C 436.5,399.5 440.5,399.5 444.5,399.5C 444.5,385.167 444.5,370.833 444.5,356.5 Z"/></g>
<g><path style="opacity:1" fill="#f3a498" d="M 393.5,386.5 C 395.161,388.633 396.161,391.133 396.5,394C 396.316,395.376 395.649,396.209 394.5,396.5C 394.384,393.14 394.051,389.807 393.5,386.5 Z"/></g>
<g><path style="opacity:1" fill="#fbc7be" d="M 457.5,382.5 C 458.167,383.5 458.833,384.5 459.5,385.5C 457.089,385.137 455.589,386.137 455,388.5C 454.207,391.741 454.707,394.741 456.5,397.5C 454.589,396.925 452.922,395.925 451.5,394.5C 452.826,390.857 454.16,387.19 455.5,383.5C 455.957,382.702 456.624,382.369 457.5,382.5 Z"/></g>
<g><path style="opacity:1" fill="#fcf0ef" d="M 462.5,343.5 C 461.952,345.532 460.619,346.532 458.5,346.5C 457.017,349.791 456.017,353.291 455.5,357C 456.101,360.798 457.101,364.465 458.5,368C 460.618,368.635 462.618,369.469 464.5,370.5C 468.362,369.925 472.362,369.925 476.5,370.5C 475.482,371.852 474.149,372.852 472.5,373.5C 475.447,374.321 478.447,374.821 481.5,375C 480.549,375.718 480.383,376.551 481,377.5C 483.022,378.991 484.688,378.658 486,376.5C 488.802,379.195 490.469,382.195 491,385.5C 492.354,381.637 492.854,377.637 492.5,373.5C 491.5,373.5 490.5,373.5 489.5,373.5C 489.5,372.5 489.5,371.5 489.5,370.5C 491.017,370.511 492.184,371.177 493,372.5C 499.346,391.336 492.513,401.002 472.5,401.5C 466.704,401.56 461.371,400.226 456.5,397.5C 454.707,394.741 454.207,391.741 455,388.5C 455.589,386.137 457.089,385.137 459.5,385.5C 465.601,389.274 472.268,390.441 479.5,389C 483.878,384.548 483.211,380.881 477.5,378C 471.744,376.621 466.077,374.954 460.5,373C 458.97,370.648 457.303,368.481 455.5,366.5C 454.671,361.547 454.337,356.547 454.5,351.5C 454.975,349.216 455.975,347.216 457.5,345.5C 459.05,344.559 460.716,343.893 462.5,343.5 Z"/></g>
<g><path style="opacity:1" fill="#d50b0d" d="M 400.5,375.5 C 400.182,380.032 400.515,384.366 401.5,388.5C 404.366,400.362 411.699,404.695 423.5,401.5C 427.371,401.185 431.038,401.518 434.5,402.5C 431.017,401.916 428.017,402.749 425.5,405C 421.167,405.667 416.833,405.667 412.5,405C 408.315,402.803 404.149,400.636 400,398.5C 396.219,399.721 395.719,401.721 398.5,404.5C 397.833,404.833 397.167,405.167 396.5,405.5C 394.653,404.814 392.986,403.814 391.5,402.5C 386.361,403.349 381.195,404.015 376,404.5C 373.179,404.592 370.679,403.926 368.5,402.5C 374.842,402.666 381.175,402.5 387.5,402C 389.879,401.284 391.879,400.117 393.5,398.5C 393.833,397.833 394.167,397.167 394.5,396.5C 395.649,396.209 396.316,395.376 396.5,394C 396.161,391.133 395.161,388.633 393.5,386.5C 393.715,384.821 393.048,383.821 391.5,383.5C 391.44,382.957 391.107,382.624 390.5,382.5C 385.504,386.346 379.838,387.512 373.5,386C 370.978,384.641 369.645,382.474 369.5,379.5C 371.583,381.045 373.583,382.878 375.5,385C 376.333,385.167 377.167,385.333 378,385.5C 382.868,384.971 387.368,383.638 391.5,381.5C 394.017,381.615 396.017,382.615 397.5,384.5C 398.318,381.893 398.818,379.226 399,376.5C 399.383,375.944 399.883,375.611 400.5,375.5 Z"/></g>
<g><path style="opacity:1" fill="#bc3331" d="M 401.5,388.5 C 403.782,392.201 406.449,395.701 409.5,399C 413.922,401.104 418.588,401.937 423.5,401.5C 411.699,404.695 404.366,400.362 401.5,388.5 Z"/></g>
<g><path style="opacity:1" fill="#fcdad6" d="M 438.5,344.5 C 438.833,344.5 439.167,344.5 439.5,344.5C 442.67,347.816 444.337,351.816 444.5,356.5C 444.5,370.833 444.5,385.167 444.5,399.5C 440.5,399.5 436.5,399.5 432.5,399.5C 432.631,398.624 432.298,397.957 431.5,397.5C 428.852,399.038 426.185,400.372 423.5,401.5C 418.588,401.937 413.922,401.104 409.5,399C 406.449,395.701 403.782,392.201 401.5,388.5C 401.335,384.818 401.501,381.152 402,377.5C 402.223,375.119 403.39,373.453 405.5,372.5C 403.353,377.284 403.019,382.284 404.5,387.5C 406.069,388.714 406.902,390.381 407,392.5C 413.866,399.978 421.866,401.311 431,396.5C 435.01,398.135 439.177,398.802 443.5,398.5C 443.667,384.829 443.5,371.163 443,357.5C 441.644,353.053 440.144,348.719 438.5,344.5 Z"/></g>
<g><path style="opacity:1" fill="#b42e2b" d="M 431.5,385.5 C 429.745,386.072 428.078,386.906 426.5,388C 418.61,390.308 414.944,387.475 415.5,379.5C 415.5,378.833 415.5,378.167 415.5,377.5C 417.368,376.737 419.035,375.737 420.5,374.5C 421.833,374.5 423.167,374.5 424.5,374.5C 426.607,373.532 428.941,373.198 431.5,373.5C 431.5,377.5 431.5,381.5 431.5,385.5 Z"/></g>
<g><path style="opacity:1" fill="#da0809" d="M 424.5,374.5 C 426.5,374.5 428.5,374.5 430.5,374.5C 431.654,384.329 427.487,387.996 418,385.5C 417.811,380.506 419.978,376.839 424.5,374.5 Z"/></g>
<g><path style="opacity:1" fill="#e8a3a2" d="M 431.5,385.5 C 431.5,381.5 431.5,377.5 431.5,373.5C 428.941,373.198 426.607,373.532 424.5,374.5C 423.167,374.5 421.833,374.5 420.5,374.5C 420.918,373.778 421.584,373.278 422.5,373C 425.817,372.502 429.15,372.335 432.5,372.5C 432.818,377.032 432.485,381.366 431.5,385.5 Z"/></g>
<g><path style="opacity:1" fill="#bd3b36" d="M 481.5,365.5 C 485.115,365.155 488.448,365.822 491.5,367.5C 492.833,369.5 494.5,371.167 496.5,372.5C 501.043,387.446 496.043,397.279 481.5,402C 473.386,402.886 465.386,402.386 457.5,400.5C 455.5,399.167 453.5,397.833 451.5,396.5C 451.5,395.833 451.5,395.167 451.5,394.5C 452.922,395.925 454.589,396.925 456.5,397.5C 461.371,400.226 466.704,401.56 472.5,401.5C 492.513,401.002 499.346,391.336 493,372.5C 492.184,371.177 491.017,370.511 489.5,370.5C 489.167,369.5 488.5,368.833 487.5,368.5C 485.629,367.203 483.629,366.203 481.5,365.5 Z"/></g>
<g><path style="opacity:1" fill="#b83938" d="M 355.5,389.5 C 358.23,392.713 361.23,395.713 364.5,398.5C 374.129,402.339 383.796,402.339 393.5,398.5C 391.879,400.117 389.879,401.284 387.5,402C 381.175,402.5 374.842,402.666 368.5,402.5C 365.631,400.65 362.631,398.983 359.5,397.5C 357.502,395.167 356.168,392.5 355.5,389.5 Z"/></g>
<g><path style="opacity:1" fill="#b42b2b" d="M 432.5,399.5 C 436.298,400.483 440.298,400.817 444.5,400.5C 444.389,401.117 444.056,401.617 443.5,402C 440.854,402.497 438.187,402.664 435.5,402.5C 435.167,402.5 434.833,402.5 434.5,402.5C 431.038,401.518 427.371,401.185 423.5,401.5C 426.185,400.372 428.852,399.038 431.5,397.5C 432.298,397.957 432.631,398.624 432.5,399.5 Z"/></g>
<g><path style="opacity:1" fill="#d6211a" d="M 594.5,397.5 C 590.06,403.278 584.727,407.945 578.5,411.5C 578.5,410.167 578.5,408.833 578.5,407.5C 579.675,407.719 580.675,407.386 581.5,406.5C 582.076,403.876 583.41,403.209 585.5,404.5C 585.19,402.799 585.69,401.132 587,399.5C 588.183,400.731 589.349,400.731 590.5,399.5C 589.41,398.391 589.41,397.391 590.5,396.5C 591.736,397.246 593.07,397.579 594.5,397.5 Z"/></g>
<g><path style="opacity:1" fill="#d42b24" d="M 346.5,428.5 C 351.68,429.903 356.68,431.737 361.5,434C 361.167,434.333 360.833,434.667 360.5,435C 364.266,435.869 367.266,437.702 369.5,440.5C 361.353,437.261 353.686,433.261 346.5,428.5 Z"/></g>
<g><path style="opacity:1" fill="#cf261e" d="M 544.5,433.5 C 533.279,439.912 521.279,444.578 508.5,447.5C 508.611,446.883 508.944,446.383 509.5,446C 516.287,444.126 522.954,441.96 529.5,439.5C 529.5,438.5 529.5,437.5 529.5,436.5C 534.652,436.136 539.652,435.136 544.5,433.5 Z"/></g>
<g><path style="opacity:1" fill="#d2372f" d="M 370.5,440.5 C 378.272,442.006 385.939,444.006 393.5,446.5C 394.381,447.971 395.714,448.804 397.5,449C 400.167,449.333 402.833,449.667 405.5,450C 407.32,450.2 408.653,451.034 409.5,452.5C 395.867,450.181 382.867,446.181 370.5,440.5 Z"/></g>
<g><path style="opacity:1" fill="#c02e28" d="M 508.5,447.5 C 502.426,449.75 496.092,451.584 489.5,453C 467.234,455.456 444.901,456.123 422.5,455C 418.57,454.758 414.903,453.925 411.5,452.5C 434.836,452.667 458.169,452.5 481.5,452C 490.394,450.095 499.394,448.595 508.5,447.5 Z"/></g>
</svg>
