<?xml version="1.0" encoding="UTF-8"?>
<!DOCTYPE svg PUBLIC "-//W3C//DTD SVG 1.1//EN" "http://www.w3.org/Graphics/SVG/1.1/DTD/svg11.dtd">
<svg xmlns="http://www.w3.org/2000/svg" version="1.1" width="128px" height="128px" style="shape-rendering:geometricPrecision; text-rendering:geometricPrecision; image-rendering:optimizeQuality; fill-rule:evenodd; clip-rule:evenodd" xmlns:xlink="http://www.w3.org/1999/xlink">
<g><path style="opacity:0.985" fill="#fbfbfb" d="M -0.5,23.5 C 42.1667,23.5 84.8333,23.5 127.5,23.5C 127.5,50.8333 127.5,78.1667 127.5,105.5C 84.8333,105.5 42.1667,105.5 -0.5,105.5C -0.5,78.1667 -0.5,50.8333 -0.5,23.5 Z"/></g>
<g><path style="opacity:1" fill="#395a97" d="M 2.5,26.5 C 2.5,29.8333 2.5,33.1667 2.5,36.5C 43.1667,36.5 83.8333,36.5 124.5,36.5C 124.5,33.1667 124.5,29.8333 124.5,26.5C 125.482,29.9619 125.815,33.6286 125.5,37.5C 84.1667,37.5 42.8333,37.5 1.5,37.5C 1.18503,33.6286 1.51836,29.9619 2.5,26.5 Z"/></g>
<g><path style="opacity:1" fill="#0d347f" d="M 2.5,26.5 C 43.1667,26.5 83.8333,26.5 124.5,26.5C 124.5,29.8333 124.5,33.1667 124.5,36.5C 83.8333,36.5 43.1667,36.5 2.5,36.5C 2.5,33.1667 2.5,29.8333 2.5,26.5 Z"/></g>
<g><path style="opacity:1" fill="#173982" d="M 14.5,50.5 C 19.3158,49.3503 24.3158,49.1837 29.5,50C 30.8932,51.1711 31.7265,52.6711 32,54.5C 32.5235,59.5943 33.5235,64.5943 35,69.5C 37.5,63.1667 40,56.8333 42.5,50.5C 45.1667,49.1667 47.8333,49.1667 50.5,50.5C 46.569,59.793 42.7356,69.1264 39,78.5C 35.9433,79.4505 32.7766,79.7839 29.5,79.5C 27.9735,71.0605 25.9735,62.7271 23.5,54.5C 20.817,52.4153 17.817,51.0819 14.5,50.5 Z"/></g>
<g><path style="opacity:1" fill="#193a82" d="M 56.5,78.5 C 53.9455,79.388 51.2788,79.7214 48.5,79.5C 50.2847,69.459 52.2847,59.459 54.5,49.5C 57.1873,49.3359 59.854,49.5026 62.5,50C 59.9281,59.3587 57.9281,68.8587 56.5,78.5 Z"/></g>
<g><path style="opacity:1" fill="#173a82" d="M 71.5,49.5 C 75.5138,49.3345 79.5138,49.5012 83.5,50C 84.4231,52.0408 84.7564,54.2075 84.5,56.5C 82.3537,56.1218 80.187,55.7885 78,55.5C 75.6154,55.2556 73.7821,56.089 72.5,58C 76.0599,60.7048 79.5599,63.5382 83,66.5C 84.5477,74.2892 81.3811,78.7892 73.5,80C 69.4631,80.6067 65.4631,80.44 61.5,79.5C 61.162,76.8431 61.8287,74.5098 63.5,72.5C 67.3682,75.1217 71.2015,75.1217 75,72.5C 75.6667,71.5 75.6667,70.5 75,69.5C 62.6172,64.4437 61.4505,57.777 71.5,49.5 Z"/></g>
<g><path style="opacity:1" fill="#163981" d="M 111.5,79.5 C 109.167,79.5 106.833,79.5 104.5,79.5C 104.737,78.209 104.404,77.209 103.5,76.5C 100.038,75.5184 96.3714,75.185 92.5,75.5C 92.5,76.5 92.5,77.5 92.5,78.5C 89.728,79.7671 87.0613,79.7671 84.5,78.5C 88.034,69.0698 91.8674,59.7364 96,50.5C 99.5958,48.8986 102.929,49.232 106,51.5C 107.645,60.8919 109.478,70.2252 111.5,79.5 Z"/></g>
<g><path style="opacity:1" fill="#dee3ed" d="M 99.5,58.5 C 100.945,61.9365 101.945,65.6032 102.5,69.5C 100.076,69.8076 97.7427,69.4742 95.5,68.5C 96.8489,65.141 98.1822,61.8077 99.5,58.5 Z"/></g>
<g><path style="opacity:1" fill="#8598be" d="M 56.5,78.5 C 55.6661,79.7479 54.3328,80.4146 52.5,80.5C 50.9549,80.4892 49.6216,80.1558 48.5,79.5C 51.2788,79.7214 53.9455,79.388 56.5,78.5 Z"/></g>
<g><path style="opacity:1" fill="#8599bf" d="M 84.5,78.5 C 87.0613,79.7671 89.728,79.7671 92.5,78.5C 91.4855,79.7647 89.9855,80.4313 88,80.5C 86.5,80.1667 85,79.8333 83.5,79.5C 83.6236,78.8933 83.9569,78.56 84.5,78.5 Z"/></g>
<g><path style="opacity:1" fill="#8e9fc3" d="M 103.5,76.5 C 104.404,77.209 104.737,78.209 104.5,79.5C 106.833,79.5 109.167,79.5 111.5,79.5C 109.052,80.4731 106.385,80.8064 103.5,80.5C 103.5,79.1667 103.5,77.8333 103.5,76.5 Z"/></g>
<g><path style="opacity:1" fill="#fcc347" d="M 2.5,92.5 C 2.5,95.8333 2.5,99.1667 2.5,102.5C 43.1667,102.5 83.8333,102.5 124.5,102.5C 124.5,99.1667 124.5,95.8333 124.5,92.5C 125.482,95.9619 125.815,99.6286 125.5,103.5C 84.1667,103.5 42.8333,103.5 1.5,103.5C 1.18503,99.6286 1.51836,95.9619 2.5,92.5 Z"/></g>
<g><path style="opacity:1" fill="#fbb314" d="M 2.5,92.5 C 43.1667,92.5 83.8333,92.5 124.5,92.5C 124.5,95.8333 124.5,99.1667 124.5,102.5C 83.8333,102.5 43.1667,102.5 2.5,102.5C 2.5,99.1667 2.5,95.8333 2.5,92.5 Z"/></g>
</svg>
