<?xml version="1.0" encoding="UTF-8"?>
<!DOCTYPE svg PUBLIC "-//W3C//DTD SVG 1.1//EN" "http://www.w3.org/Graphics/SVG/1.1/DTD/svg11.dtd">
<svg xmlns="http://www.w3.org/2000/svg" version="1.1" width="512px" height="512px" style="shape-rendering:geometricPrecision; text-rendering:geometricPrecision; image-rendering:optimizeQuality; fill-rule:evenodd; clip-rule:evenodd" xmlns:xlink="http://www.w3.org/1999/xlink">
<g><path style="opacity:0.998" fill="#6ca544" d="M 232.5,-0.5 C 247.833,-0.5 263.167,-0.5 278.5,-0.5C 368.144,10.3879 435.644,54.7213 481,132.5C 486.464,143.736 491.63,155.07 496.5,166.5C 386.5,166.5 276.5,166.5 166.5,166.5C 166.5,115.833 166.5,65.1667 166.5,14.5C 188.044,6.94469 210.044,1.94469 232.5,-0.5 Z"/></g>
<g><path style="opacity:0.997" fill="#a2001c" d="M 166.5,14.5 C 166.5,65.1667 166.5,115.833 166.5,166.5C 166.5,225.833 166.5,285.167 166.5,344.5C 166.5,395.167 166.5,445.833 166.5,496.5C 81.1759,462.341 27.3425,400.675 5,311.5C 2.74641,300.424 0.913081,289.424 -0.5,278.5C -0.5,263.167 -0.5,247.833 -0.5,232.5C 10.3875,142.857 54.7208,75.3573 132.5,30C 143.568,24.1487 154.901,18.9821 166.5,14.5 Z"/></g>
<g><path style="opacity:0.999" fill="#eeeeee" d="M 166.5,166.5 C 276.5,166.5 386.5,166.5 496.5,166.5C 504.055,188.044 509.055,210.044 511.5,232.5C 511.5,247.833 511.5,263.167 511.5,278.5C 509.055,300.956 504.055,322.956 496.5,344.5C 386.5,344.5 276.5,344.5 166.5,344.5C 166.5,285.167 166.5,225.833 166.5,166.5 Z"/></g>
<g><path style="opacity:0.996" fill="#323232" d="M 166.5,344.5 C 276.5,344.5 386.5,344.5 496.5,344.5C 462.341,429.824 400.675,483.657 311.5,506C 300.424,508.254 289.424,510.087 278.5,511.5C 263.167,511.5 247.833,511.5 232.5,511.5C 210.044,509.055 188.044,504.055 166.5,496.5C 166.5,445.833 166.5,395.167 166.5,344.5 Z"/></g>
</svg>
