<svg xmlns="http://www.w3.org/2000/svg" viewBox="0 0 512 512">
  <rect width="512" height="512" fill="#006c35"/>
  <g fill="#fff">
    <path d="M144 128h224v256H144z"/>
    <path d="M304.7 256c0 17.8-14.4 32.3-32.2 32.3s-32.2-14.5-32.2-32.3 14.4-32.3 32.2-32.3 32.2 14.5 32.2 32.3zm-12.9 0c0-10.7-8.7-19.4-19.3-19.4s-19.3 8.7-19.3 19.4 8.6 19.4 19.3 19.4 19.3-8.7 19.3-19.4z"/>
    <path d="M329.7 256h-30.8c0-14.6-11.8-26.4-26.4-26.4s-26.4 11.8-26.4 26.4h-30.8c0-31.6 25.6-57.2 57.2-57.2s57.2 25.6 57.2 57.2zm-132 57.1h116.6c3.1 0 5.6-2.5 5.6-5.6v-11.3c0-3.1-2.5-5.6-5.6-5.6H197.7c-3.1 0-5.6 2.5-5.6 5.6v11.3c0 3.1 2.5 5.6 5.6 5.6zm0-85.7h116.6c3.1 0 5.6-2.5 5.6-5.6v-11.3c0-3.1-2.5-5.6-5.6-5.6H197.7c-3.1 0-5.6 2.5-5.6 5.6v11.3c0 3.1 2.5 5.6 5.6 5.6z"/>
  </g>
</svg>
 