<svg xmlns="http://www.w3.org/2000/svg" viewBox="0 0 512 512">
  <rect width="512" height="512" fill="#fff"/>
  <g fill="#bf0a30">
    <rect width="512" height="39.4" y="0"/>
    <rect width="512" height="39.4" y="78.8"/>
    <rect width="512" height="39.4" y="157.5"/>
    <rect width="512" height="39.4" y="236.3"/>
    <rect width="512" height="39.4" y="315"/>
    <rect width="512" height="39.4" y="393.8"/>
    <rect width="512" height="39.4" y="472.5"/>
  </g>
  <rect width="217" height="275.4" fill="#002868"/>
  <g fill="#fff">
    <path d="M25 50l3.1 9.5H38l-8 5.8 3.1 9.5-8-5.8-8 5.8 3.1-9.5-8-5.8h9.9z"/>
    <path d="M25 90l3.1 9.5H38l-8 5.8 3.1 9.5-8-5.8-8 5.8 3.1-9.5-8-5.8h9.9z"/>
    <path d="M25 130l3.1 9.5H38l-8 5.8 3.1 9.5-8-5.8-8 5.8 3.1-9.5-8-5.8h9.9z"/>
    <path d="M25 170l3.1 9.5H38l-8 5.8 3.1 9.5-8-5.8-8 5.8 3.1-9.5-8-5.8h9.9z"/>
    <path d="M25 210l3.1 9.5H38l-8 5.8 3.1 9.5-8-5.8-8 5.8 3.1-9.5-8-5.8h9.9z"/>
    <path d="M50 30l3.1 9.5H63l-8 5.8 3.1 9.5-8-5.8-8 5.8 3.1-9.5-8-5.8h9.9z"/>
    <path d="M50 70l3.1 9.5H63l-8 5.8 3.1 9.5-8-5.8-8 5.8 3.1-9.5-8-5.8h9.9z"/>
    <path d="M50 110l3.1 9.5H63l-8 5.8 3.1 9.5-8-5.8-8 5.8 3.1-9.5-8-5.8h9.9z"/>
    <path d="M50 150l3.1 9.5H63l-8 5.8 3.1 9.5-8-5.8-8 5.8 3.1-9.5-8-5.8h9.9z"/>
    <path d="M50 190l3.1 9.5H63l-8 5.8 3.1 9.5-8-5.8-8 5.8 3.1-9.5-8-5.8h9.9z"/>
    <path d="M50 230l3.1 9.5H63l-8 5.8 3.1 9.5-8-5.8-8 5.8 3.1-9.5-8-5.8h9.9z"/>
    <path d="M75 50l3.1 9.5H88l-8 5.8 3.1 9.5-8-5.8-8 5.8 3.1-9.5-8-5.8h9.9z"/>
    <path d="M75 90l3.1 9.5H88l-8 5.8 3.1 9.5-8-5.8-8 5.8 3.1-9.5-8-5.8h9.9z"/>
    <path d="M75 130l3.1 9.5H88l-8 5.8 3.1 9.5-8-5.8-8 5.8 3.1-9.5-8-5.8h9.9z"/>
    <path d="M75 170l3.1 9.5H88l-8 5.8 3.1 9.5-8-5.8-8 5.8 3.1-9.5-8-5.8h9.9z"/>
    <path d="M75 210l3.1 9.5H88l-8 5.8 3.1 9.5-8-5.8-8 5.8 3.1-9.5-8-5.8h9.9z"/>
    <path d="M100 30l3.1 9.5H113l-8 5.8 3.1 9.5-8-5.8-8 5.8 3.1-9.5-8-5.8h9.9z"/>
    <path d="M100 70l3.1 9.5H113l-8 5.8 3.1 9.5-8-5.8-8 5.8 3.1-9.5-8-5.8h9.9z"/>
    <path d="M100 110l3.1 9.5H113l-8 5.8 3.1 9.5-8-5.8-8 5.8 3.1-9.5-8-5.8h9.9z"/>
    <path d="M100 150l3.1 9.5H113l-8 5.8 3.1 9.5-8-5.8-8 5.8 3.1-9.5-8-5.8h9.9z"/>
    <path d="M100 190l3.1 9.5H113l-8 5.8 3.1 9.5-8-5.8-8 5.8 3.1-9.5-8-5.8h9.9z"/>
    <path d="M100 230l3.1 9.5H113l-8 5.8 3.1 9.5-8-5.8-8 5.8 3.1-9.5-8-5.8h9.9z"/>
  </g>
</svg> 